<?xml version="1.0" encoding="utf-8"?>
<!-- Generator: Adobe Illustrator 24.0.2, SVG Export Plug-In . SVG Version: 6.00 Build 0)  -->
<svg version="1.1" id="Capa_1" xmlns="http://www.w3.org/2000/svg" xmlns:xlink="http://www.w3.org/1999/xlink" x="0px" y="0px"
	 viewBox="0 0 1080 1080" style="enable-background:new 0 0 1080 1080;" xml:space="preserve">
<style type="text/css">
	.st0{fill:url(#SVGID_1_);}
	.st1{fill:url(#SVGID_2_);}
</style>
<linearGradient id="SVGID_1_" gradientUnits="userSpaceOnUse" x1="-0.0548" y1="720.2783" x2="1079.9452" y2="720.2783">
	<stop  offset="0" style="stop-color:#7C3AED"/>
	<stop  offset="1" style="stop-color:#2563EB"/>
</linearGradient>
<path class="st0" d="M-0.05,1044.17c17.56,0,35.11,0,54.43,0c0-4.63,0-8.67,0-12.71c0-106.85-0.01-213.71,0.01-320.56
	c0-21.61,5.14-26.79,26.67-26.8c54.13-0.03,108.26-0.03,162.39,0c21.32,0.01,26.57,5.38,26.57,26.98c0.01,106.5,0,213,0,319.51
	c0,4.13,0,8.25,0,12.94c12.11,0,23.21,0,35.93,0c0-4.36,0-8.76,0-13.16c0-189.81,0-379.61,0-569.42c0-23.8,4.68-28.53,28.18-28.53
	c53.08,0,106.15,0,159.23,0c24.24,0,28.54,4.37,28.54,29.07c0,189.1,0,378.21,0,567.31c0,4.83,0,9.67,0,14.88
	c12.48,0,23.62,0,36.1,0c0-4.88,0-9.36,0-13.83c0-129.7,0-259.4,0-389.1c0-24.21,4.53-28.65,29.16-28.65
	c53.43,0,106.85-0.02,160.28,0.01c20.72,0.01,26.49,5.72,26.5,26.19c0.01,130.75,0.01,261.51,0.01,392.26c0,4.13,0,8.26,0,12.96
	c12.08,0,23.18,0,35.93,0c0-4.32,0-8.72,0-13.12c0-214.06,0-428.12,0-642.18c0-23.09,4.6-27.68,27.73-27.68
	c54.13-0.01,108.26-0.02,162.39,0.01c20.21,0.01,25.51,5.3,25.51,25.58c0.01,214.41,0.01,428.82,0.01,643.23c0,4.5,0,8.99,0,14.81
	c18.82,0,36.63,0,54.43,0c0,11.95,0,23.91,0,35.86c-360,0-720,0-1080,0C-0.05,1068.07-0.05,1056.12-0.05,1044.17z M988.75,1043.59
	c0-215.99,0-431.23,0-646.3c-48.01,0-95.24,0-142.39,0c0,215.81,0,430.8,0,646.3C893.88,1043.59,940.85,1043.59,988.75,1043.59z
	 M484.98,1043.57c0-192,0-383.26,0-574.4c-48.04,0-95.25,0-142.47,0c0,191.84,0,382.86,0,574.4
	C390.08,1043.57,437.03,1043.57,484.98,1043.57z M594.73,1043.18c47.87,0,95.33,0,142.35,0c0-132.08,0-263.23,0-394.47
	c-47.84,0-94.77,0-142.35,0C594.73,780.51,594.73,911.69,594.73,1043.18z M91.21,720.69c0,108.23,0,215.53,0,322.55
	c48.07,0,95.28,0,142.28,0c0-107.91,0-214.96,0-322.55C185.94,720.69,138.98,720.69,91.21,720.69z"/>
<linearGradient id="SVGID_2_" gradientUnits="userSpaceOnUse" x1="72.2727" y1="252.105" x2="1008.4899" y2="252.105">
	<stop  offset="0" style="stop-color:#7C3AED"/>
	<stop  offset="1" style="stop-color:#2563EB"/>
</linearGradient>
<path class="st1" d="M930.18,0.03c24.05,5.98,45.8,16.05,60.33,37.13c21.73,31.53,24.22,64.86,4.96,98.12
	c-18.07,31.21-46.31,46.58-82.43,44.15c-12.55-0.85-25.01-5.84-37.04-10.23c-5.64-2.06-8.95-2.81-13.62,1.91
	c-38.32,38.72-76.85,77.22-115.54,115.57c-4.52,4.48-4.97,7.73-1.97,13.48c24.19,46.31,6.5,100.04-40.26,123.45
	c-43.25,21.65-97.61,2.55-119.65-42.64c-9.36-19.19-11.79-39.68-5.5-60.45c2.22-7.34,1.11-11.72-5.39-16.59
	c-32.88-24.64-65.3-49.9-96.45-73.85c-14.22,6.69-26.89,14.37-40.62,18.73c-22.34,7.1-44.55,4.09-65.06-7.44
	c-5.68-3.19-8.87-2.72-13.39,1.84c-38.34,38.7-76.86,77.22-115.56,115.55c-4.57,4.52-4.83,7.68-1.9,13.44
	c16.61,32.6,14.9,64.93-6.43,94.41c-22.44,31.02-54.16,43.21-91.67,35.16c-36.72-7.88-60.29-31.85-68.26-68.13
	c-8.08-36.75,3.69-68.5,34.19-91.11c28.95-21.46,60.84-23.96,93.33-7.9c7.11,3.52,11.11,3.49,16.92-2.42
	c37.21-37.83,74.76-75.34,112.56-112.59c5.78-5.7,6.13-9.57,2.35-16.76c-17.7-33.65-11.49-72.98,15.22-102.4
	c24.02-26.45,64.79-34.88,99.76-20.62c32.75,13.35,55.8,48.14,54.67,84.03c-0.29,9.31-3.76,18.48-4.96,27.81
	c-0.45,3.49,0.13,8.89,2.4,10.67c32.84,25.81,66.05,51.16,98.23,75.9c12.7-7.12,23.92-15.23,36.42-20.04
	c24.07-9.26,48.36-7.55,71.21,4.79c6.42,3.46,10.07,3.06,15.24-2.18c37.77-38.27,75.86-76.22,113.94-114.19
	c3.95-3.94,6.48-6.77,3.12-13.27c-29.27-56.51,1.6-119.74,63.89-131.74c1.3-0.25,2.5-1.06,3.75-1.61
	C914.71,0.03,922.45,0.03,930.18,0.03z M864.1,91.02c0.28,29.8,24.19,53.41,53.88,53.22c29.58-0.19,53.71-24.3,53.72-53.67
	c0.01-29.6-25.41-54.7-54.7-54C887.26,37.27,863.82,61.4,864.1,91.02z M360.35,162.05c-0.14,29.72,23.46,53.97,52.93,54.39
	c29.65,0.42,54.74-24.34,54.7-53.99c-0.04-29.28-24.52-53.79-53.75-53.82C384.66,108.59,360.49,132.56,360.35,162.05z
	 M719.54,342.84c0.2-29.77-23.17-53.71-52.84-54.1c-29.98-0.39-54.64,23.68-54.79,53.49c-0.14,29.24,24.02,53.38,53.68,53.63
	C695.32,396.11,719.34,372.52,719.54,342.84z M215.83,414.52c0.08-29.63-23.64-53.69-53.14-53.89
	c-29.91-0.21-54.63,24.2-54.54,53.85c0.09,29.26,24.44,53.35,53.97,53.4C191.81,467.92,215.75,444.14,215.83,414.52z"/>
</svg>
