<?xml version="1.0" encoding="utf-8"?>
<!-- Generator: Adobe Illustrator 24.0.2, SVG Export Plug-In . SVG Version: 6.00 Build 0)  -->
<svg version="1.1" id="Capa_1" xmlns="http://www.w3.org/2000/svg" xmlns:xlink="http://www.w3.org/1999/xlink" x="0px" y="0px"
	 viewBox="0 0 1080 1080" style="enable-background:new 0 0 1080 1080;" xml:space="preserve">
<style type="text/css">
	.st0{fill:url(#SVGID_1_);}
	.st1{fill:url(#SVGID_2_);}
	.st2{fill:url(#SVGID_3_);}
	.st3{fill:url(#SVGID_4_);}
	.st4{fill:url(#SVGID_5_);}
	.st5{fill:url(#SVGID_6_);}
	.st6{fill:url(#SVGID_7_);}
</style>
<g>
	<linearGradient id="SVGID_1_" gradientUnits="userSpaceOnUse" x1="14.255" y1="539.9171" x2="1065.4957" y2="539.9171">
		<stop  offset="0" style="stop-color:#7C3AED"/>
		<stop  offset="0.5" style="stop-color:#6366F1"/>
		<stop  offset="1" style="stop-color:#2563EB"/>
	</linearGradient>
	<path class="st0" d="M942.57,784.15c0-30.62,0.01-60.14,0-89.66c-0.01-36.94,0.03-73.88-0.09-110.82
		c-0.06-19.57-9.36-29.53-29.65-29.27c-32.72,0.41-65.44,0.11-100.71,0.11c0,24.96,0.5,47.28-0.11,69.56
		c-1.11,40.66-22.49,62.87-63.13,63.03c-139.73,0.52-279.47,0.55-419.2-0.03c-39.32-0.16-60.84-22.44-62.17-61.51
		c-0.71-20.81-0.13-41.66-0.13-66.33c-32.4,0-63.33,0.05-94.26-0.01c-52.18-0.1-74.76-22.44-74.97-74.72
		c-0.22-53.8-0.05-107.61-0.06-161.42c0-8.63,0-17.26,0-24.5c-3.95-2.16-5.28-3.48-6.67-3.56C28,291.33,14.31,276.58,14.3,211.78
		c0-48.18-0.13-96.37,0.04-144.55c0.16-44.6,22.2-67.16,66.13-67.21C217.8-0.12,355.13-0.11,492.45,0.02
		c44.3,0.04,66.45,22.33,66.6,66.72c0.18,53.8,0.19,107.61,0,161.42c-0.16,44.18-22.3,66.13-66.98,66.2
		c-108.41,0.15-216.83,0.05-325.24,0.05c-8.78,0-17.55,0-29.92,0c0,17.22,0,33.02,0,48.81c0.01,48.18-0.28,96.37,0.14,144.55
		c0.22,26.06,7.11,32.54,33.19,32.68c29.71,0.16,59.42-0.15,89.13-0.35c1.48-0.01,2.95-0.96,7.98-2.71
		c0-19.24-0.38-39.79,0.08-60.31c0.95-42.04,22.39-64.34,64.16-64.48c138.93-0.45,277.86-0.47,416.79,0.02
		c41.63,0.15,62.77,22.58,63.7,64.94c0.4,18.37,0.07,36.77,0.07,58.23c33.74,0,65.63-0.11,97.53,0.03
		c47.51,0.21,71.26,23.31,71.58,70.87c0.44,64.99,0.11,129.99,0.11,198.76c10.07,0,18.56-0.37,27,0.07
		c32.53,1.69,56.01,24.28,56.49,57.03c0.87,59.41,0.84,118.86,0.06,178.27c-0.48,36.87-25.15,58.82-64.62,58.89
		c-110.02,0.2-220.04,0.07-330.06,0.07c-29.71,0-59.43,0.41-89.14-0.13c-36.69-0.67-60.2-23.9-60.55-60.54
		c-0.54-57.01-0.43-114.04-0.06-171.05c0.25-39.53,23.36-62.51,63.18-62.61c111.63-0.27,223.25-0.08,334.88-0.15
		C925.59,785.29,932.64,784.64,942.57,784.15z M539.76,431.28c-68.25,0-136.51,0.31-204.76-0.19c-20.32-0.15-29.19,8.06-28.98,28.64
		c0.55,52.99,0.66,106-0.06,158.99c-0.29,21.68,8.67,30.05,30.18,29.98c135.7-0.44,271.41-0.44,407.11,0
		c21.44,0.07,30.55-8.17,30.26-29.91c-0.71-52.18-0.82-104.39,0.05-156.57c0.38-22.84-8.81-31.48-31.46-31.22
		C674.67,431.76,607.21,431.26,539.76,431.28z M795.19,824.06c-68.19,0-136.39,0.54-204.57-0.31c-22.28-0.27-32.28,7.04-31.83,30.48
		c0.99,52.13,0.98,104.3,0.01,156.43c-0.43,23.33,9.43,30.77,31.76,30.67c134.78-0.57,269.56-0.23,404.34-0.33
		c27.55-0.02,31.46-4.18,31.53-32.68c0.13-50.54,0.13-101.09,0-151.63c-0.07-29.34-3.47-32.58-33.87-32.62
		C926.77,824,860.98,824.06,795.19,824.06z M286.85,255.68c67.39,0,134.79-0.54,202.17,0.31c22.44,0.28,32.1-7.42,31.67-30.69
		c-0.98-52.13-0.97-104.3-0.01-156.43c0.44-23.49-9.8-30.56-31.96-30.46c-134.78,0.57-269.56,0.23-404.34,0.33
		c-27.42,0.02-31.26,4.17-31.32,32.84c-0.12,50.54-0.12,101.09,0,151.63c0.07,28.62,3.69,32.38,31.63,32.44
		C152.07,255.77,219.46,255.68,286.85,255.68z"/>
	<linearGradient id="SVGID_2_" gradientUnits="userSpaceOnUse" x1="399.2442" y1="494.079" x2="679.0874" y2="494.079">
		<stop  offset="0" style="stop-color:#7C3AED"/>
		<stop  offset="0.5" style="stop-color:#6366F1"/>
		<stop  offset="1" style="stop-color:#2563EB"/>
	</linearGradient>
	<path class="st1" d="M542.15,474.68c36.12-0.01,72.25-0.05,108.37,0.01c13.37,0.02,27.8,0.81,28.54,18.22
		c0.82,19.16-14.17,20.54-28.58,20.55c-74.65,0.05-149.31,0.04-223.96-0.02c-13.59-0.01-27.28-1.54-27.27-19.38
		c0.01-17.86,13.74-19.31,27.31-19.33C465.09,474.64,503.62,474.69,542.15,474.68z"/>
	<linearGradient id="SVGID_3_" gradientUnits="userSpaceOnUse" x1="399.3192" y1="576.3361" x2="679.0902" y2="576.3361">
		<stop  offset="0" style="stop-color:#7C3AED"/>
		<stop  offset="0.5" style="stop-color:#6366F1"/>
		<stop  offset="1" style="stop-color:#2563EB"/>
	</linearGradient>
	<path class="st2" d="M542.18,556.94c36.12-0.01,72.24-0.06,108.36,0.02c13.32,0.03,27.84,0.65,28.53,18.14
		c0.75,19.05-14.17,20.61-28.61,20.62c-74.65,0.05-149.29,0.05-223.94-0.03c-13.59-0.01-27.19-1.63-27.2-19.48
		c-0.01-18.04,13.82-19.18,27.28-19.22C465.13,556.87,503.65,556.95,542.18,556.94z"/>
	<linearGradient id="SVGID_4_" gradientUnits="userSpaceOnUse" x1="652.3354" y1="886.7037" x2="931.5165" y2="886.7037">
		<stop  offset="0" style="stop-color:#7C3AED"/>
		<stop  offset="0.5" style="stop-color:#6366F1"/>
		<stop  offset="1" style="stop-color:#2563EB"/>
	</linearGradient>
	<path class="st3" d="M792.89,867.47c37.63,0,75.26,0.2,112.89-0.11c14.49-0.12,28.32,3.66,25.32,19.97
		c-1.39,7.53-15.96,17.83-24.72,18c-76.03,1.42-152.11,0.74-228.17,0.89c-14.49,0.03-28.22-4.3-25.55-20.21
		c1.24-7.37,15.95-17.25,24.97-17.71C715.97,866.34,754.46,867.47,792.89,867.47z"/>
	<linearGradient id="SVGID_5_" gradientUnits="userSpaceOnUse" x1="651.8878" y1="968.8334" x2="931.9802" y2="968.8334">
		<stop  offset="0" style="stop-color:#7C3AED"/>
		<stop  offset="0.5" style="stop-color:#6366F1"/>
		<stop  offset="1" style="stop-color:#2563EB"/>
	</linearGradient>
	<path class="st4" d="M791.39,988.19c-36.83,0-73.66-0.19-110.49,0.09c-14.8,0.11-29.29-1.69-29-20.05
		c0.26-16.59,13.73-18.89,27.81-18.85c75.26,0.22,150.53,0.21,225.79,0.02c14.37-0.04,26.93,3.05,26.47,20.03
		c-0.46,17.07-13.72,18.95-27.68,18.86C866.65,988.02,829.02,988.19,791.39,988.19z"/>
	<linearGradient id="SVGID_6_" gradientUnits="userSpaceOnUse" x1="145.7934" y1="101.3575" x2="425.9681" y2="101.3575">
		<stop  offset="0" style="stop-color:#7C3AED"/>
		<stop  offset="0.5" style="stop-color:#6366F1"/>
		<stop  offset="1" style="stop-color:#2563EB"/>
	</linearGradient>
	<path class="st5" d="M283.16,120.7c-36.83,0-73.67-0.21-110.5,0.11c-14.37,0.12-27.18-3.08-26.86-19.73
		c0.32-16.58,13.5-19.2,27.63-19.16c75.27,0.19,150.54,0.18,225.81,0.02c14.29-0.03,26.98,3.03,26.72,19.93
		c-0.26,17.11-13.46,19.05-27.49,18.94C360.04,120.5,321.6,120.7,283.16,120.7z"/>
	<linearGradient id="SVGID_7_" gradientUnits="userSpaceOnUse" x1="146.269" y1="183.5744" x2="425.4971" y2="183.5744">
		<stop  offset="0" style="stop-color:#7C3AED"/>
		<stop  offset="0.5" style="stop-color:#6366F1"/>
		<stop  offset="1" style="stop-color:#2563EB"/>
	</linearGradient>
	<path class="st6" d="M286.83,202.81c-38.43,0-76.92,1.13-115.25-0.84c-9.03-0.46-23.75-10.36-24.98-17.73
		c-2.65-15.91,11.11-20.23,25.58-20.2c76.06,0.15,152.14-0.53,228.18,0.89c8.76,0.16,23.33,10.49,24.72,18.04
		c3.02,16.38-10.93,20.03-25.35,19.92C362.1,202.63,324.47,202.81,286.83,202.81z"/>
</g>
</svg>
