<?xml version="1.0" encoding="utf-8"?>
<!-- Generator: Adobe Illustrator 24.0.2, SVG Export Plug-In . SVG Version: 6.00 Build 0)  -->
<svg version="1.1" id="Capa_1" xmlns="http://www.w3.org/2000/svg" xmlns:xlink="http://www.w3.org/1999/xlink" x="0px" y="0px"
	 viewBox="0 0 1080 1080" style="enable-background:new 0 0 1080 1080;" xml:space="preserve">
<style type="text/css">
	.st0{fill:url(#SVGID_1_);}
</style>
<linearGradient id="SVGID_1_" gradientUnits="userSpaceOnUse" x1="-0.0548" y1="540.0274" x2="1079.9452" y2="540.0274">
	<stop  offset="0" style="stop-color:#7C3AED"/>
	<stop  offset="1" style="stop-color:#6366F1"/>
</linearGradient>
<path class="st0" d="M1079.95,331.2c0,7.73,0,15.47,0,23.2c-5.56,22.33-17.12,40.38-37.27,52.33c-10.84,6.43-21.68,12.86-32.5,19.31
	c-8.51,5.07-16.99,10.17-26.73,16c16.11,9.47,30.23,18.64,45.1,26.32c25.81,13.32,45.02,31.7,51.4,61.13c0,7.03,0,14.06,0,21.09
	c-6.34,28.99-25.22,47.25-50.56,60.62c-15.27,8.06-29.8,17.54-45.99,27.16c16.31,9.6,30.71,18.92,45.87,26.79
	c25.48,13.23,44.27,31.55,50.68,60.51c0,7.73,0,15.47,0,23.2c-7.61,28.91-28.05,45.68-52.93,60.2
	c-135.73,79.19-270.93,159.26-406.36,238.96c-21.68,12.76-42.76,26.89-68.05,32.01c-9.14,0-18.28,0-27.42,0
	c-14.01-6.04-28.84-10.68-41.91-18.33C339.7,977.69,196.57,892.93,52.89,809.12c-24.9-14.52-45.33-31.34-52.94-60.26
	c0-7.73,0-15.47,0-23.2c6.08-25.24,20.41-43.94,43.47-56.21c12.66-6.74,24.81-14.41,37.18-21.69c4.92-2.9,9.79-5.87,15.78-9.47
	c-16.34-9.72-30.72-19.11-45.86-27.09c-25.34-13.36-44.23-31.63-50.57-60.62c0-7.03,0-14.06,0-21.09
	c5.69-11.84,9.78-24.89,17.55-35.14c6.71-8.85,17.14-15.27,26.78-21.42c16.64-10.61,33.94-20.17,52.2-30.9
	c-16.6-9.91-31.24-19.54-46.69-27.65c-25.12-13.19-43.4-31.52-49.85-59.96c0-7.73,0-15.47,0-23.2c7.57-29.45,28.64-46.15,53.77-60.8
	c134.56-78.44,268.65-157.7,402.9-236.68c22.58-13.28,44.39-28.17,70.67-33.69c9.14,0,18.28,0,27.42,0
	c15.85,7.08,32.54,12.74,47.43,21.45c141.75,82.95,283.03,166.69,424.88,249.46C1051.92,285.47,1072.37,302.25,1079.95,331.2z
	 M540.61,639.98c9.88-3.97,19.83-6.6,28.38-11.61c148.41-87.03,296.66-174.33,444.9-261.64c22.82-13.44,22.85-32.65,0.05-46.08
	C865.4,233.15,716.77,145.81,568.27,58.23c-19.15-11.29-37.52-11.24-56.55-0.03c-148.83,87.7-297.76,175.24-446.6,262.92
	c-21.57,12.7-21.66,32.32-0.11,45.02c149.13,87.88,298.3,175.69,447.64,263.23C520.87,634.18,530.68,636.29,540.61,639.98z
	 M540.26,1032.66c9.53-3.74,19.56-6.24,28.11-11.25c148.75-87.2,297.34-174.68,445.91-262.19c22.23-13.09,22.24-32.48,0.19-45.59
	c-23.24-13.82-46.82-27.09-69.84-41.26c-6.89-4.24-11.69-4.32-18.78-0.13c-109.78,64.79-219.94,128.95-329.62,193.9
	c-37.88,22.43-74.32,22.68-112.27,0.21c-109.99-65.12-220.42-129.52-330.54-194.42c-6.14-3.62-10.59-4.21-16.96-0.31
	C112.8,686.11,88.65,699.78,64.83,714c-21,12.54-21.32,32.16-0.44,44.48c149.44,88.1,298.94,176.11,448.59,263.86
	C520.95,1027,530.45,1029.03,540.26,1032.66z M540.31,836.2c9.43-3.57,18.87-5.7,26.83-10.36
	c149.35-87.57,298.55-175.4,447.71-263.29c21.55-12.7,21.44-32.26-0.05-45.04c-23.54-14.01-47.38-27.51-70.72-41.84
	c-6.59-4.05-11.18-3.93-17.84,0c-109.81,64.75-220,128.85-329.64,193.88c-38.31,22.72-74.88,22.79-113.18,0.09
	c-109.67-64.99-219.83-129.13-329.64-193.88c-6.57-3.88-11.17-4.31-17.84-0.2c-23.32,14.36-47.17,27.86-70.71,41.86
	c-21.57,12.83-21.82,32.36-0.33,45.03c149.16,87.89,298.35,175.73,447.72,263.28C520.86,830.56,530.7,832.65,540.31,836.2z"/>
</svg>
