<?xml version="1.0" encoding="utf-8"?>
<!-- Generator: Adobe Illustrator 24.0.2, SVG Export Plug-In . SVG Version: 6.00 Build 0)  -->
<svg version="1.1" id="Capa_1" xmlns="http://www.w3.org/2000/svg" xmlns:xlink="http://www.w3.org/1999/xlink" x="0px" y="0px"
	 viewBox="0 0 1232.95 648" style="enable-background:new 0 0 1232.95 648;" xml:space="preserve">
<style type="text/css">
	.st0{fill:#FFFFFF;}
</style>
<g>
	<path class="st0" d="M670.21,226.29h133.83L829.78,288h70.17L770.35,0h-66.04L575.95,288h68.52L670.21,226.29z M737.12,65.89
		l45.8,109.79h-91.6L737.12,65.89z"/>
	<polygon class="st0" points="357.98,408.96 424.17,408.96 424.17,468 457.99,468 457.99,324 424.17,324 424.17,380.78 
		357.98,380.78 357.98,324 323.95,324 323.95,468 357.98,468 	"/>
	<path class="st0" d="M467.95,324v79.08c0,20.9,5.57,36.95,16.72,48.13c11.15,11.19,26.6,16.79,46.38,16.79
		c19.64,0,35.03-5.59,46.18-16.79c11.15-11.19,16.72-27.23,16.72-48.13V324H562.3v78.27c0,13.35-2.72,23.02-8.16,29.02
		c-5.44,6-13.07,9-22.89,9c-9.69,0-17.25-3-22.69-9c-5.44-6-8.16-15.67-8.16-29.02V324H467.95z"/>
	<path class="st0" d="M724.91,381.09c3.79-5.55,5.68-12.1,5.68-19.65c0-11.24-4.66-20.3-13.98-27.15
		c-9.33-6.86-23.24-10.29-41.74-10.29h-71.92v144h76.12c19.35,0,33.99-3.46,43.95-10.39c9.95-6.92,14.93-16.56,14.93-28.9
		c0-8.36-2.03-15.43-6.1-21.19c-4.07-5.76-9.64-10.15-16.72-13.17c-1.24-0.53-2.52-0.99-3.82-1.42
		C716.99,389.99,721.53,386.05,724.91,381.09z M636.8,349.1h33.85c8.27,0,14.61,1.37,19.03,4.11c4.42,2.74,6.62,6.99,6.62,12.75
		c0,5.76-2.21,10.05-6.62,12.86c-4.42,2.81-10.76,4.22-19.03,4.22H636.8V349.1z M696.73,438.58c-4.63,2.88-11.29,4.32-19.98,4.32
		H636.8v-35.59h39.95c8.69,0,15.35,1.44,19.98,4.32c4.63,2.88,6.94,7.41,6.94,13.58C703.67,431.25,701.36,435.7,696.73,438.58z"/>
	<path class="st0" d="M430.71,512.95C418.78,506.98,405,504,389.36,504h-65.42v144h65.42c15.63,0,29.42-2.98,41.35-8.95
		c11.93-5.97,21.26-14.33,27.98-25.1c6.72-10.76,10.08-23.42,10.08-37.95c0-14.53-3.36-27.19-10.08-37.95
		C451.97,527.28,442.64,518.91,430.71,512.95z M426.5,599.84c-3.63,6.81-8.72,12.04-15.28,15.69c-6.56,3.65-14.29,5.47-23.2,5.47
		h-28.07v-90h28.07c8.91,0,16.64,1.83,23.2,5.47c6.56,3.65,11.65,8.84,15.28,15.58c3.63,6.74,5.44,14.73,5.44,23.94
		C431.95,585.08,430.13,593.03,426.5,599.84z"/>
	<rect x="476.95" y="504" class="st0" width="36" height="144"/>
	<rect x="665.95" y="504" class="st0" width="36" height="144"/>
	<path class="st0" d="M629.95,611.6c-3.81,2.58-7.69,4.58-11.64,5.97c-6.04,2.12-12.23,3.18-18.6,3.18c-6.63,0-12.7-1.13-18.2-3.38
		c-5.5-2.25-10.28-5.37-14.32-9.35c-4.05-3.98-7.16-8.72-9.35-14.22c-2.19-5.5-3.28-11.44-3.28-17.8c0-6.63,1.09-12.66,3.28-18.1
		c2.19-5.44,5.3-10.14,9.35-14.12c4.04-3.98,8.85-7.06,14.42-9.25s11.67-3.28,18.3-3.28c7.16,0,13.72,1.29,19.69,3.88
		c5.97,2.59,11.54,6.6,16.71,12.03l20.49-19.09c-6.76-7.82-15.09-13.79-24.96-17.9c-9.88-4.11-20.98-6.17-33.32-6.17
		c-11.14,0-21.35,1.76-30.63,5.27c-9.28,3.51-17.37,8.52-24.26,15.02c-6.9,6.5-12.23,14.12-16.01,22.87
		c-3.78,8.75-5.67,18.37-5.67,28.84c0,10.48,1.89,20.09,5.67,28.84c3.78,8.75,9.05,16.38,15.81,22.87
		c6.76,6.5,14.78,11.5,24.07,15.02c9.28,3.51,19.42,5.27,30.43,5.27c9.94,0,19.89-1.49,29.83-4.48c9.95-2.98,21.5-7.69,29.19-13.52
		v-54h-27V611.6z"/>
	<polygon class="st0" points="818.95,504 710.95,504 710.95,531.15 746.95,531.15 746.95,648 782.95,648 782.95,531.15 
		818.95,531.15 	"/>
	<path class="st0" d="M856.13,504l-64.18,144h34.26l11.26-27h70.13l11.26,27h35.08l-64.8-144H856.13z M848.73,594l23.8-57.06
		l23.8,57.06H848.73z"/>
	<polygon class="st0" points="999.95,504 962.95,504 962.95,648 1070.95,648 1070.95,621 999.95,621 	"/>
	<path class="st0" d="M143.95,0h-90v9h-9V0h-27v18h9V8.89h9V18h-9v9h9v9h12.77h95.23c59.65,0,108,48.35,108,108v81l-81-81l-27,27
		l81,81h-81c-59.65,0-108-48.35-108-108V48.77V36.11h-9v-9h-9v9h-9V27h9v-9h-18v26.89h9V54h-9v90c0,79.53,64.47,144,144,144h108v36
		h-180v36h180l-108,108l27,27l81-81v90l-108,108l27,27l81-81v90h36V504V360v-36v-36V144C287.95,64.47,223.47,0,143.95,0z M53.95,27
		h-9v-9.11h9V27z M80.95,18h-9V8.89h9V18z M17.95,81h-9v-9.11h9V81z M26.95,54h-9v-9.11h9V54z"/>
	<path class="st0" d="M908.95,288.11h9V288h27v-18h-9v9.11h-9V270h9v-9h-9v-9.11h9v9h9v-9h9V261h-9v9h18v-26.89h-9V234h9V0h-63v288
		h9V288.11z M944.95,207h9v9.11h-9V207z M935.95,234h9v9.11h-9V234z"/>
	<path class="st0" d="M390.2,207.36h56.9c0.98,0,1.94-0.02,2.9-0.03L505.22,288h70.72l-63.39-92.61c0.13-0.06,0.26-0.11,0.39-0.17
		c18.42-8.09,32.65-19.88,42.68-35.38c10.02-15.49,15.04-34.08,15.04-55.75c0-32.36-10.97-57.81-32.92-76.32
		C515.79,9.26,485.03,0,445.47,0h-67.53v9h-9V0h-27v18h9V8.89h9V18h-9v9h9v9.11h-9v-9h-9v9h-9V27h9v-9h-18v26.89h9V54h-9v234h66.25
		V207.36z M395.95,8.89h9V18h-9V8.89z M390.2,54.31h53.25c20.05,0,35.22,4.32,45.52,12.96c10.29,8.64,15.45,20.92,15.45,36.82
		c0,15.91-5.15,28.25-15.45,37.03c-10.3,8.78-25.47,13.17-45.52,13.17H390.2V54.31z M341.95,81h-9v-9.11h9V81z M350.95,54h-9v-9.11
		h9V54z M377.95,27h-9v-9.11h9V27z"/>
	<path class="st0" d="M1063.14,233.69L1226.55,43.2V0h-200.6v9h-9V0h-27v18h9V8.89h9V18h-9v9h9v9.11h-9v-9h-9v9h-9V27h9v-9h-18
		v26.89h9V54h-9v0.31h163.79L971.95,244.8V288h261v-54.31H1063.14z M998.95,54h-9v-9.11h9V54z M1025.95,27h-9v-9.11h9V27z
		 M1052.95,18h-9V8.89h9V18z"/>
</g>
</svg>
