<?xml version="1.0" encoding="utf-8"?>
<!-- Generator: Adobe Illustrator 24.0.2, SVG Export Plug-In . SVG Version: 6.00 Build 0)  -->
<svg version="1.1" id="Capa_1" xmlns="http://www.w3.org/2000/svg" xmlns:xlink="http://www.w3.org/1999/xlink" x="0px" y="0px"
	 viewBox="0 0 1080 1080" style="enable-background:new 0 0 1080 1080;" xml:space="preserve">
<style type="text/css">
	.st0{fill:url(#SVGID_1_);}
</style>
<linearGradient id="SVGID_1_" gradientUnits="userSpaceOnUse" x1="0" y1="540" x2="1080" y2="540">
	<stop  offset="0" style="stop-color:#7C3AED"/>
	<stop  offset="1" style="stop-color:#2563EB"/>
</linearGradient>
<path class="st0" d="M0,487.27c0-8.44,0-16.88,0-25.32c9.2-29.82,27.49-49.01,60.01-52.23c2.24-0.22,4.98-4.22,5.94-6.99
	c5.05-14.58,8.27-29.94,14.6-43.91c14.04-30.95,29.42-61.3,44.57-91.74c3.69-7.41,10.17-10.67,18.53-7.75
	c7.4,2.59,12.05,8,11.12,15.89c-0.54,4.62-3.29,9.19-5.78,13.34c-21.46,35.71-37.65,73.67-49.97,113.45
	c-3.17,10.25-4.66,18.21,6.81,24.27c4.34,2.29,6.67,8.11,10.63,11.48c2.74,2.33,7.09,5.11,10.06,4.5
	c61.13-12.51,122.91-18.58,185.22-20.17c3.37-0.09,7.89-2.72,9.79-5.56c16.09-24.12,38.34-33.83,66.94-30.71
	c3.56,0.39,8.95-1.62,11.04-4.38c30.46-40.21,64.31-77.25,102.31-110.44c4.18-3.65,3.82-6.66,2.76-11.71
	c-2.2-10.49-3.88-21.42-3.32-32.04c0.35-6.56-1.06-9.53-6.42-12.18c-24.2-12-47.83-25.32-72.58-36.03
	c-26.57-11.5-54.16-20.63-81.29-30.79c-10.56,18.68-24.51,29.88-43.25,34.34c-18.6,4.42-36.11,0.87-52.07-9.45
	c-3.48,3.06-6.53,5.44-9.24,8.18c-11.86,11.99-23.6,24.1-35.41,36.14c-7.6,7.74-15.94,8.38-23.14,1.85
	c-7.2-6.53-7.66-15.12-0.1-23.13c13.01-13.8,26.28-27.4,40.02-40.47c5.13-4.88,6.99-8.48,4.53-15.93
	c-9.26-28.14,1.39-56.53,26.06-72.65c24.43-15.96,53.52-14.39,76,5.22c5.72,4.99,9.48,3.33,14.76,0.77
	c88.89-43.09,182.54-58.71,280.67-48.48c58.19,6.06,113.62,21.69,166.44,46.86c2.97,1.41,8.33,1.2,10.96-0.61
	c25.59-17.62,50.98-19.14,74.64-3.81c24.01,15.56,33.62,40.68,27.67,70.65c-0.65,3.28,0.93,8.19,3.26,10.67
	c7.19,7.68,15.54,14.26,22.84,21.85c4.54,4.71,8.44,5.28,14.72,3.2c26.66-8.81,53.49-0.02,70.42,22.23
	c16.41,21.57,17.89,50.25,2.82,72.94c-3.93,5.91-3.97,9.82-0.52,15.79c29.61,51.3,49.08,106.34,58.79,164.74
	c3.27,19.66,5.48,39.49,8.18,59.24c0,21.8,0,43.6,0,65.4c-1.28,9.71-2.64,19.41-3.84,29.12c-15.6,126-70.57,231.93-162.84,318.69
	c-5.35,5.03-6.59,8.97-4.42,16.16c8.19,27.08-2.02,54.46-25.19,70.3c-23.61,16.14-52.86,15.42-75.38-2.72
	c-5.11-4.12-8.58-3.92-13.85-1.23c-49.85,25.43-102.58,41.7-158.05,49.2c-105.26,14.24-205.76-1.22-301.08-48.38
	c-6.9-3.41-11.32-3.26-17.68,1.14c-21.82,15.08-49.2,14.26-71.09-1.12c-21.91-15.39-32.07-40.94-25.66-66.44
	c1.67-6.63,0.7-10.59-4.54-15.34c-39.89-36.16-73.01-77.87-99.53-124.71C72.56,720.19,49.13,636.2,47.94,546.12
	c-0.05-3.62-1.42-9.66-3.64-10.45C20.79,527.3,7.34,510.2,0,487.27z M440.5,460.21c-14.34,41.68-39.36,56.64-82.39,51.15
	c-0.54,0.72-1.31,1.46-1.75,2.35c-56.45,116.57-78.3,239.46-66.88,368.32c0.25,2.86,4.32,6.95,7.33,7.74
	c14.46,3.82,26.66,10.95,35.78,22.71c3.34,4.3,5.87,5.42,11.27,3.39c165.24-62.13,303.23-161.89,414.22-299.15
	c3.29-4.07,4.37-7.04,1.33-11.91c-7.52-12.01-10.21-25.5-8.26-39.42c1.02-7.23-1.2-10.26-7.59-13.4
	c-67.38-33.1-137.58-58.26-210.83-74.52C502.33,470.74,471.5,465.96,440.5,460.21z M344.4,973.83c0.9,0.58,1.44,1.03,2.06,1.33
	c143.99,69.41,288.19,69.54,432.69,1.47c5.48-2.58,6.39-5.5,5.77-11.32c-3.65-34.32,13.64-61.39,45.68-71.45
	c5.79-1.82,7.8-4.59,8.01-10.13c0.92-24.57,2.1-49.13,2.99-73.71c0.44-12.32,6.05-19.12,16.21-18.93
	c9.78,0.18,15.64,6.72,15.38,18.54c-0.48,22.83-0.01,45.83-2.8,68.4c-1.65,13.38,1.99,20.24,13.74,24.32
	c0.64,0.22,1.34,0.28,2.02,0.4c0.63-0.28,1.39-0.42,1.87-0.85c48.33-43.66,86.19-95.05,114.26-153.82c3.21-6.72-0.1-9.52-3.89-13.3
	c-40.16-40.05-83.32-76.52-130.02-108.73c-4.01-2.77-7.08-8.6-14.41-3.65c-7.63,5.15-4.26,10.54-3.09,16.38
	c4.77,23.73,9.93,47.39,14.12,71.22c1.92,10.91-3.56,17.63-13.2,19c-9.81,1.39-16-4.63-18.37-17.13
	c-4.74-25.03-9.73-50.02-14.39-73.86c-9-1.52-16.21-1.26-21.96-4.04c-8.57-4.15-12.28-0.24-17.13,5.73
	C670.14,774.77,534.54,874.9,372.33,938.18c-17.36,6.77-29.54,13.57-28.23,33.88C344.12,972.4,344.21,972.74,344.4,973.83z
	 M309.46,454.37c-1.89,0-5.78-0.37-9.58,0.06c-51.65,5.78-103.26,11.91-154.94,17.35c-11.67,1.23-18.02,3.56-19.8,17.73
	c-1.35,10.79-9.25,21.93-16.99,30.4c-7.04,7.7-17.79,12-29.47,19.43c7.8,140.48,59.4,263.45,160.68,363.22
	c17.83-4.21,19.16-14.58,17.94-28.33c-5.82-65.5-1.9-130.6,10.67-195.15c11.93-61.3,31.39-120.11,58.45-176.42
	c1.62-3.38,3.09-8.38,1.77-11.35C322.86,479.33,316.42,467.84,309.46,454.37z M879.48,170.16c-37.16,23.5-67.78,18.36-95.54-14.67
	c-1.66-1.97-6.72-2.67-9.55-1.82c-49.62,14.85-96.61,35.8-141.58,61.47c-5.64,3.22-6.15,6.75-6.02,12.64
	c0.22,9.67-0.02,19.78-2.69,28.94c-2.27,7.76-0.86,11.75,4.9,16.86c68.27,60.61,123.15,131.69,164.31,213.15
	c6.93,13.72,12.57,25.54,31.38,23.05c5.41-0.72,8.48-0.88,11.37-5.81c38.01-64.73,68.19-132.88,90.44-204.58
	c1.98-6.37,1.48-9.75-4.3-13.83c-12.76-9.03-20.44-21.82-24.07-37.15c-4.37-18.48-0.22-35.35,9.56-51.79
	C898.2,187.71,889.04,179.11,879.48,170.16z M1018.28,708.72c1.17-2.99,2.26-5.55,3.19-8.17c14.29-40.27,22.68-81.76,25.55-124.38
	c6.52-97.08-12.79-188.52-60.14-273.72c-1.65-2.97-7.09-7.1-8.56-6.35c-6.64,3.38-17.1-2.75-20.51,8.58
	c-22.89,75.95-54.79,147.95-94.84,216.4c-1.52,2.59-0.99,8.2,0.87,10.65c12.02,15.77,16.57,33.43,13.09,52.58
	c-1.29,7.11,1.21,9.7,6.1,13.37c25.83,19.39,51.84,38.6,76.85,59.02C979.91,673.07,998.61,691.09,1018.28,708.72z M422.96,403.53
	c3.94,6.15,8.41,11.39,10.86,17.44c2.64,6.54,6.57,8.69,13.26,9.47c16.37,1.92,32.7,4.39,48.92,7.28
	c92.09,16.42,180,45.56,263.88,86.99c3.2,1.58,8.28,0.95,11.75-0.45c1.26-0.51,1.63-6.88,0.32-9.58
	c-40.82-84.55-96.46-157.95-166.91-220.01c-2.28-2.01-7.84-2.66-10.63-1.33c-20.44,9.74-40.49,9.79-60.85-0.09
	c-2.49-1.21-7.23-1.45-9.01,0.09C486.41,326.24,452.57,363.14,422.96,403.53z M775.31,101.66c-4.67-2.22-9.37-4.56-14.15-6.71
	c-54.09-24.23-110.75-37.71-169.92-40.92c-83.38-4.52-162.78,10.87-237.89,47.5c-3.21,1.56-6.14,5.93-7.02,9.53
	c-1.48,6.02,3.26,7.72,8.4,9.63c34.16,12.69,68.5,25,102.06,39.15c21.18,8.93,41.1,20.82,61.51,31.34
	c32.14-24.89,56.32-24.85,92.28,0.27c3.79-2.11,7.76-4.27,11.68-6.51c42.82-24.42,87.56-44.61,134.72-58.91
	C769.69,122.17,777.36,117.04,775.31,101.66z M31.53,474.16c0.03,17.78,14.41,32.29,31.94,32.23c18.31-0.06,31.8-13.52,31.99-31.92
	c0.19-18.69-13.8-33.03-32.2-32.99C46.05,441.51,31.49,456.51,31.53,474.16z M376.68,481.25c18.59,0.01,32.64-14.23,32.38-32.82
	c-0.24-17.09-14.52-31.33-31.71-31.61c-17.63-0.29-32.57,13.98-32.96,31.47C343.99,466.73,358.21,481.24,376.68,481.25z
	 M782.31,573.01c0.16,17.67,14.99,32.47,32.21,32.15c18.57-0.34,32.04-14.61,31.66-33.52c-0.37-18.16-14.39-31.77-32.51-31.55
	C796.28,540.3,782.15,555.13,782.31,573.01z M283.17,88.47c-18.17-0.12-31.94,13.39-32.29,31.69
	c-0.35,18.02,14.58,33.28,32.36,33.08c17.06-0.2,31.45-14.5,31.77-31.57C315.37,102.79,301.74,88.59,283.17,88.47z M596.08,236.78
	c0.08-18.06-13.7-32.13-31.74-32.41c-17.52-0.28-32.3,14.07-32.65,31.68c-0.34,17.49,14.14,32.78,31.4,33.15
	C581.34,269.58,596,255.17,596.08,236.78z M879.86,956.07c0.2-18.93-13.43-32.89-32.08-32.85c-18.28,0.03-31.73,13.45-31.97,31.9
	c-0.23,17.88,13.76,32.29,31.53,32.49C865.21,987.8,879.68,973.77,879.86,956.07z M837.9,88.34c-17.72-0.02-32.16,14.34-32.18,31.99
	c-0.01,18.32,13.44,32.19,31.55,32.53c18.52,0.35,32.61-13.63,32.7-32.42C870.05,102.85,855.58,88.35,837.9,88.34z M250.86,953.03
	c0.2,17.64,14.76,32.12,32.23,32.05c17.54-0.07,31.93-14.64,31.96-32.34c0.02-17.84-15.4-33.2-32.88-32.75
	C264.78,920.43,250.67,935.33,250.86,953.03z M992.07,234.44c0.12-17.96-13.91-32.37-31.59-32.45c-18.41-0.08-32.1,13.2-32.42,31.45
	c-0.33,18.79,13.29,32.89,31.96,33.08C977.52,266.7,991.95,252.26,992.07,234.44z"/>
</svg>
