<?xml version="1.0" encoding="utf-8"?>
<!-- Generator: Adobe Illustrator 24.0.2, SVG Export Plug-In . SVG Version: 6.00 Build 0)  -->
<svg version="1.1" id="Capa_1" xmlns="http://www.w3.org/2000/svg" xmlns:xlink="http://www.w3.org/1999/xlink" x="0px" y="0px"
	 viewBox="0 0 1080 1080" style="enable-background:new 0 0 1080 1080;" xml:space="preserve">
<style type="text/css">
	.st0{fill:url(#SVGID_1_);}
	.st1{fill:#35CBCB;}
	.st2{fill:url(#SVGID_2_);}
	.st3{fill:url(#SVGID_3_);}
</style>
<linearGradient id="SVGID_1_" gradientUnits="userSpaceOnUse" x1="9.6432" y1="1071.8833" x2="250.6413" y2="830.8852">
	<stop  offset="0" style="stop-color:#7C3AED"/>
	<stop  offset="1" style="stop-color:#6366F1;stop-opacity:0"/>
</linearGradient>
<path class="st0" d="M308.47,889.24c-2.55,6.71-4.76,13.58-7.71,20.11c-8.79,19.42-22.43,34.63-41.24,44.74
	c-72.13,38.77-144.34,77.39-216.54,116.03c-22.65,12.12-28.82,10.58-42.39-10.22c0-2.62,0-5.25,0-7.87
	c19.63-35.41,39.35-70.78,58.87-106.25c22.73-41.29,45.18-82.74,67.96-124c14.32-25.93,37.12-40.74,65.11-48.42
	c15.84,15.64,32.25,30.71,46.85,47.55c-1.68,0.86-3.09-0.01-4.63-0.58c-30.62-11.56-56.62-1.54-71.96,27.06
	c-16.41,30.58-33.31,60.9-50,91.33c-11.11,20.25-22.24,40.49-33.92,61.74c2.24-0.41,3.19-0.36,3.92-0.75
	c52.53-28.11,105.25-55.87,157.44-84.59c22.13-12.17,31.03-39.11,23.14-63.11c-0.97-2.96-3.74-5.57-2.25-9.17
	C278.05,857.13,292.81,873.65,308.47,889.24z"/>
<path class="st1" d="M259.26,805.65c-1.89,0.04-3.2-0.59-3.2-2.75C257.79,803.03,258.84,803.98,259.26,805.65z"/>
<path class="st1" d="M279.34,826.38c-2.52,0.17-2.81-1.51-2.83-3.41C278.27,823.44,279.33,824.48,279.34,826.38z"/>
<g>
	<linearGradient id="SVGID_2_" gradientUnits="userSpaceOnUse" x1="0.5797" y1="540.3161" x2="1079.0839" y2="540.3161">
		<stop  offset="0" style="stop-color:#7C3AED"/>
		<stop  offset="0.5" style="stop-color:#6366F1"/>
		<stop  offset="1" style="stop-color:#2563EB"/>
	</linearGradient>
	<path class="st2" d="M0.58,523.46c58.32-58.6,116.71-117.15,174.91-175.87c7.59-7.65,16.24-9.9,26.65-9.36
		c58.49,3.05,116.99,5.7,175.48,8.76c6.23,0.33,10.07-1.28,14.02-6.35C512.7,185.14,670.02,84.23,858.96,31.45
		c53.43-14.93,108.09-23.49,163.36-28.2c2.78-0.24,6.46,1.62,8.32-2.33c9.83,0,19.66,0,29.49,0c8.86,3.78,16.13,9.15,18.96,18.96
		c0,14.05,0,28.09,0,42.14c-5.29,11.24-4.17,23.61-5.84,35.42c-23.8,168.22-85.63,320.46-190.88,454.32
		c-40.98,52.12-88.68,97.51-142.62,136.16c-5.83,4.18-7.64,8.32-7.24,15.54c3.28,59.2,6.01,118.43,8.95,177.64
		c0.42,8.54-2.16,15.73-8.27,21.84c-56.1,56.04-112.19,112.07-168.09,168.31c-4.33,4.36-9.93,5.49-14.73,8.47c-2.81,0-5.62,0-8.43,0
		c-11.84-5.38-16.72-14.82-19.35-27.48c-13.15-63.36-27.41-126.49-40.66-189.83c-1.96-9.37-4.31-9.33-11.64-5.11
		c-27.57,15.87-55.4,31.28-83.25,46.67c-14.09,7.79-22.22,6.43-33.83-5c-7.74-7.62-15.41-15.31-23.11-22.97
		c-16.76-16.7-32.55-34.37-50.67-49.68l-0.1,0.07c-0.02-1.9-1.08-2.94-2.82-3.41c-5.75-5.77-11.5-11.55-17.26-17.32
		c-0.42-1.67-1.47-2.61-3.21-2.75l0.11-0.04c-15.63-18.03-33.19-34.15-50.14-50.89c-7.15-7.22-14.31-14.42-21.44-21.66
		c-11.05-11.23-12.58-19.01-5.58-32.96c14.72-29.36,29.52-58.69,44.75-87.79c3.7-7.07,4.09-9.76-5.07-11.67
		c-63.32-13.22-126.47-27.25-189.79-40.49c-11.83-2.47-21.77-6.55-28.32-17.07C0.58,534.7,0.58,529.08,0.58,523.46z M413.14,701.31
		c27.37,27.32,54.3,54,80.92,80.97c3.98,4.04,6.64,4.2,11.35,1.29c30.07-18.61,60.54-36.59,90.53-55.34
		c57.68-36.05,115.57-72.12,166.68-117.23c79.16-69.87,138.12-155.16,184.17-249.76c2.61-5.37,1.09-7.96-2.52-11.56
		c-71.31-71.16-142.54-142.39-213.63-213.76c-4.05-4.06-6.92-5.2-12.48-2.43c-103.87,51.87-195.02,120.16-269.35,209.79
		c-59.29,71.49-107.19,150.65-153.24,231c-3,5.23-1.59,7.82,2.09,11.47c25.43,25.2,50.84,50.43,75.84,76.05
		c5.29,5.42,7.97,6.09,13.71,0.23c33.66-34.34,67.79-68.22,101.84-102.18c11.97-11.94,26.23-12.89,36.03-2.69
		c9.62,10.02,8.54,23.53-3.13,35.32c-16.54,16.72-33.23,33.29-49.86,49.92C452.54,661.95,432.97,681.5,413.14,701.31z M772.62,109.3
		c65.97,66.01,131.75,131.84,197.56,197.69c-0.3,0.36,0.62-0.32,0.97-1.22c31.23-79.26,51.64-161.12,59.74-246.04
		c0.89-9.35-1.6-10.79-10.37-9.92c-46.07,4.56-91.69,11.65-136.59,22.97C845.68,82.43,808.2,94.43,772.62,109.3z M687.35,725.52
		c-2.08,0.89-3.04,1.15-3.83,1.67c-50.73,33.78-102.57,65.78-155.19,96.5c-6.72,3.92-5.88,8.25-4.68,13.8
		c9.04,41.75,18.02,83.51,27.08,125.25c3.28,15.1,6.74,30.17,10.4,46.49c44-43.97,86.61-86.64,129.4-129.13
		c3.49-3.47,3.8-7,3.58-11.34C691.82,821.44,689.63,774.12,687.35,725.52z M353.2,392.58c-9.81-0.62-18.4-1.27-27.01-1.69
		c-37.48-1.82-74.97-3.38-112.43-5.53c-6.87-0.4-11.64,1.04-16.58,6.03c-39.73,40.14-79.78,79.97-119.65,119.97
		c-2.1,2.1-5.38,3.56-5.39,7.73c55.7,12.02,111.5,23.71,167.07,36.39c10.29,2.35,14.41-0.25,19.24-9.03
		c20.57-37.43,42.75-73.93,65.94-109.81C333.64,422.31,343.06,408.07,353.2,392.58z M269.02,622.42
		c-13.92,27.05-27.17,52.84-40.5,78.59c-1.77,3.43-1.97,5.87,1.22,8.99c17.03,16.66,33.86,33.53,50.54,50.55
		c3.24,3.31,5.12,3.24,8.31-0.01c18.19-18.49,36.51-36.84,54.97-55.06c3.13-3.1,3.62-4.97,0.23-8.33
		C319.17,672.76,294.75,648.18,269.02,622.42z M457.83,811.31c-25.34-25.33-49.65-49.51-73.76-73.88c-3.14-3.17-4.74-2.26-7.34,0.36
		c-18.25,18.39-36.55,36.74-55.04,54.9c-3.54,3.47-3.78,5.6-0.11,9.2c17.25,16.92,34.27,34.08,51.29,51.23
		c2.44,2.45,4.26,3.66,7.96,1.54C405.99,840.27,431.31,826.19,457.83,811.31z"/>
	<linearGradient id="SVGID_3_" gradientUnits="userSpaceOnUse" x1="556.4828" y1="400.1065" x2="806.5444" y2="400.1065">
		<stop  offset="0" style="stop-color:#7C3AED"/>
		<stop  offset="0.5" style="stop-color:#6366F1"/>
		<stop  offset="1" style="stop-color:#2563EB"/>
	</linearGradient>
	<path class="st3" d="M556.49,399.66c0.62-70.45,56.64-125.22,127.61-124.77c67.47,0.43,122.93,57.27,122.44,125.51
		c-0.51,70.98-56.66,125.54-128.56,124.91C612.17,524.74,555.9,466.54,556.49,399.66z M602.86,399.42
		c0,44.03,35.17,79.77,78.24,79.51c43.82-0.26,79.33-35.48,79.43-78.78c0.1-43.1-35.89-78.99-79.16-78.94
		C638.42,321.25,602.86,356.69,602.86,399.42z"/>
</g>
</svg>
