<?xml version="1.0" encoding="utf-8"?>
<!-- Generator: Adobe Illustrator 24.0.2, SVG Export Plug-In . SVG Version: 6.00 Build 0)  -->
<svg version="1.1" id="Capa_1" xmlns="http://www.w3.org/2000/svg" xmlns:xlink="http://www.w3.org/1999/xlink" x="0px" y="0px"
	 viewBox="0 0 1080 1080" style="enable-background:new 0 0 1080 1080;" xml:space="preserve">
<style type="text/css">
	.st0{fill:url(#SVGID_1_);}
	.st1{fill:url(#SVGID_2_);}
	.st2{fill:url(#SVGID_3_);}
</style>
<g>
	<linearGradient id="SVGID_1_" gradientUnits="userSpaceOnUse" x1="337.4924" y1="371.7585" x2="1065.7317" y2="371.7585">
		<stop  offset="0" style="stop-color:#7C3AED"/>
		<stop  offset="1" style="stop-color:#2563EB"/>
	</linearGradient>
	<path class="st0" d="M582.84,461.87c25.84-24.55,50.43-47.56,74.45-71.17c3.42-3.36,5.72-9.62,5.66-14.51
		c-0.46-37.84-1.95-75.66-2.46-113.5c-0.37-27.26,9.54-50.48,29.05-69.88C748.29,134.39,806.78,75.69,865.37,17.1
		c10.67-10.67,21.98-21.25,38.58-15.46c17.25,6.02,20.38,21.12,21.68,37.41c2.02,25.18,5.62,50.23,7.5,75.42
		c1.04,13.93,7.35,19.62,21,20.68c27.28,2.11,54.75,3.85,81.56,8.85c10.89,2.03,25.34,10.19,28.87,19.21
		c3.48,8.87-1.28,25.8-8.52,33.27c-61.61,63.49-124.4,125.84-187.32,188.05c-17.32,17.12-39.7,23.09-63.71,23.12
		c-30.9,0.05-61.83-0.8-92.67,0.52c-9.28,0.4-20.04,4.67-27.12,10.7c-25.64,21.79-50.01,45.07-73.28,66.34
		c53.17,97.76,41.44,178.34-28.89,229.28c-61.78,44.75-148.98,37.01-202.04-17.94c-53.37-55.27-58.14-142.02-11.63-202.53
		C413.12,437.11,501.44,407.86,582.84,461.87z M557.73,493.4c-56.67-35.64-123.24-22.94-159.85,27.87
		c-35.51,49.28-26.29,118.22,21.01,157.05c47.93,39.35,117.69,34.17,159.5-11.86c37.55-41.34,40.64-108.13,8.94-140.78
		c-24.98,23.46-50.19,46.75-74.92,70.53c-9.87,9.5-20.25,17.75-32.53,6.25c-13.29-12.44-5.25-23.67,4.99-34.08
		C508.88,544.01,532.57,519.34,557.73,493.4z M700.3,341.83c4.49-1.83,6.02-2.01,6.85-2.86C768.81,275.74,830.44,212.47,892,149.13
		c2.37-2.44,6.03-5.75,5.75-8.29c-3.1-28.55-6.85-57.02-10.84-88.77c-60.74,60.42-118.54,117.41-175.47,175.26
		c-6.25,6.35-10.21,17.45-10.64,26.56C699.45,282.43,700.3,311.07,700.3,341.83z M733.76,368.13c26.2,0,46.41-0.77,66.54,0.21
		c21.25,1.03,37.55-6.61,52.27-21.78c36.17-37.28,73.04-73.89,110.11-110.28c17.4-17.08,35.91-33.02,53.92-49.48
		c-1.22-2.01-2.43-4.02-3.65-6.04c-28.16-3.51-56.29-7.2-84.5-10.24c-2.55-0.27-5.94,3.28-8.29,5.7
		C859.52,238.54,798.97,300.95,733.76,368.13z"/>
	<linearGradient id="SVGID_2_" gradientUnits="userSpaceOnUse" x1="14.2683" y1="601.533" x2="970.9341" y2="601.533">
		<stop  offset="0" style="stop-color:#7C3AED"/>
		<stop  offset="1" style="stop-color:#2563EB"/>
	</linearGradient>
	<path class="st1" d="M659.22,155.67c-19.86,30.47-19.86,30.47-51.34,21.97C329.38,102.47,53.8,311.36,53.01,599.4
		c-0.64,235.19,180.92,426.33,412.88,440.62c231.3,14.25,425.24-152.52,459.78-366.81c12.11-75.17,5.58-148.32-19.95-219.89
		c-11.68-32.75-11.8-32.71,16.59-55.99c79.9,144.99,72.97,394.45-109.31,558.93c-182.57,164.75-455.97,164.82-640.03,1.15
		C-6.5,797.82-38.05,525.01,100.33,327.84C244.77,122.05,497.91,85.61,659.22,155.67z"/>
	<linearGradient id="SVGID_3_" gradientUnits="userSpaceOnUse" x1="169.1647" y1="588.316" x2="815.5311" y2="588.316">
		<stop  offset="0" style="stop-color:#7C3AED"/>
		<stop  offset="1" style="stop-color:#2563EB"/>
	</linearGradient>
	<path class="st2" d="M612.86,330.37c-82.51-35.08-164.98-36.19-246.02,3.5c-58.03,28.42-101.33,72.33-129.85,130.43
		C180.7,579,208.97,718.69,305.17,802.19c98.36,85.37,238.1,94.37,345.66,22.26c118.48-79.43,150.18-203.22,94.58-369.42
		c36.96-7.89,41.02-5.69,52.71,28.53c61.11,178.96-44.41,373.83-226.68,418.61c-186.3,45.77-368.56-75.68-398.32-265.42
		c-37.4-238.44,197-433.71,424.63-353.76C618.43,290.26,620.14,295.24,612.86,330.37z"/>
</g>
</svg>
