<?xml version="1.0" encoding="utf-8"?>
<!-- Generator: Adobe Illustrator 24.0.2, SVG Export Plug-In . SVG Version: 6.00 Build 0)  -->
<svg version="1.1" id="Capa_1" xmlns="http://www.w3.org/2000/svg" xmlns:xlink="http://www.w3.org/1999/xlink" x="0px" y="0px"
	 viewBox="0 0 1080 1080" style="enable-background:new 0 0 1080 1080;" xml:space="preserve">
<style type="text/css">
	.st0{fill:url(#SVGID_1_);}
	.st1{fill:url(#SVGID_2_);}
</style>
<g>
	<linearGradient id="SVGID_1_" gradientUnits="userSpaceOnUse" x1="89.9777" y1="540" x2="569.9777" y2="540">
		<stop  offset="0" style="stop-color:#7C3AED"/>
		<stop  offset="0.5" style="stop-color:#6366F1"/>
		<stop  offset="1" style="stop-color:#2563EB"/>
	</linearGradient>
	<path class="st0" d="M329.98,0h-150v15h-15V0h-45v30h15V14.81h15V30h-15v15h15v15h21.28h158.72c99.41,0,180,80.59,180,180v135
		l-135-135l-45,45l135,135h-135c-99.41,0-180-80.59-180-180V81.28V60.19h-15v-15h-15v15h-15V45h15V30h-30v44.81h15V90h-15v150
		c0,132.55,107.45,240,240,240h180v60h-300v60h300l-180,180l45,45l135-135v150l-180,180l45,45l135-135v150h60V840V600v-60v-60V240
		C569.98,107.45,462.53,0,329.98,0z M179.98,45h-15V29.81h15V45z M224.98,30h-15V14.81h15V30z M119.98,135h-15v-15.19h15V135z
		 M134.98,90h-15V74.81h15V90z"/>
</g>
<g>
	<g>
		<linearGradient id="SVGID_2_" gradientUnits="userSpaceOnUse" x1="510.0223" y1="540" x2="990.0223" y2="540">
			<stop  offset="0" style="stop-color:#7C3AED"/>
			<stop  offset="1" style="stop-color:#6366F1"/>
		</linearGradient>
		<path class="st1" d="M955.02,5v20h-5V14.81v-5h-5h-15h-5v5V30v5h5h10v5h-10h-5v5v10h-16.28H750.02c-102.01,0-185,82.99-185,185
			v135v12.07l8.54-8.54l131.46-131.46L742.95,285L611.49,416.46l-8.54,8.54h12.07h135c102.01,0,185-82.99,185-185V81.28V65.19h10h5
			v-5v-10h5v10v5h5h15h5v-5V45v-5h-5h-10v-5h20v34.81h-10h-5v5V90v5h5h10v145c0,31.73-6.21,62.5-18.47,91.47
			c-11.84,27.98-28.78,53.12-50.36,74.7c-21.58,21.58-46.72,38.53-74.7,50.36C812.52,468.79,781.75,475,750.02,475h-180h-5v5v60v5h5
			h295v50h-295h-12.07l8.54,8.54L742.95,780l-37.93,37.93L573.56,686.46l-8.54-8.54V690v150v2.07l1.46,1.46L742.95,1020
			l-37.93,37.93L573.56,926.46l-8.54-8.54V930v145h-50V840V600v-60v-60V240c0-31.73,6.21-62.5,18.47-91.47
			c11.84-27.98,28.78-53.12,50.36-74.7c21.58-21.58,46.72-38.53,74.7-50.36C687.52,11.21,718.3,5,750.02,5h145v10v5h5h15h5v-5V5
			H955.02 M850.02,35h5h15h5v-5V14.81v-5h-5h-15h-5v5V30V35 M895.02,50h5h15h5v-5V29.81v-5h-5h-15h-5v5V45V50 M940.02,95h5h15h5v-5
			V74.81v-5h-5h-15h-5v5V90V95 M955.02,140h5h15h5v-5v-15.19v-5h-5h-15h-5v5V135V140 M960.02,0h-45v15h-15V0h-150
			c-132.55,0-240,107.45-240,240v240v60v60v240v240h60V930l135,135l45-45l-180-180V690l135,135l45-45l-180-180h300v-60h-300v-60h180
			c132.55,0,240-107.45,240-240V90h-15V74.81h15V30h-30v15h15v15.19h-15v-15h-15v15h-15v21.09V240c0,99.41-80.59,180-180,180h-135
			l135-135l-45-45l-135,135V240c0-99.41,80.59-180,180-180h158.72h21.28V45h15V30h-15V14.81h15V30h15V0L960.02,0z M855.02,30V14.81
			h15V30H855.02L855.02,30z M900.02,45V29.81h15V45H900.02L900.02,45z M945.02,90V74.81h15V90H945.02L945.02,90z M960.02,135v-15.19
			h15V135H960.02L960.02,135z"/>
	</g>
</g>
</svg>
