<?xml version="1.0" encoding="utf-8"?>
<!-- Generator: Adobe Illustrator 24.0.2, SVG Export Plug-In . SVG Version: 6.00 Build 0)  -->
<svg version="1.1" id="Capa_1" xmlns="http://www.w3.org/2000/svg" xmlns:xlink="http://www.w3.org/1999/xlink" x="0px" y="0px"
	 viewBox="0 0 983.47 195.17" style="enable-background:new 0 0 983.47 195.17;" xml:space="preserve">
<style type="text/css">
	.st0{fill:#FFFFFF;}
</style>
<path class="st0" d="M31.77,112.26c6.46,0.23,11.81-1.34,16.26-5.52c0.96-0.9,1.88-1.79,2.4-3c0.59-1.37,1.68-2.21,2.97-2.77
	c1.16-0.51,2.39-0.53,3.36,0.45c0.96,0.97,0.22,1.94-0.26,2.78c-4.6,8.21-11.76,12.52-20.99,13.49c-3.31,0.35-6.65,0.07-9.91-0.76
	c-1.98-0.51-2.75,0.23-1.93,2.13c2.25,5.19,5.66,9.3,11.21,11.15c2.53,0.84,4.99,1.94,7.73,2.1c1.88,0.11,1.75,1.62,1.55,2.93
	c-0.21,1.36-0.62,2.41-2.48,2.2c-12.17-1.35-22.85-9.44-24.53-21.9c-0.17-1.28-0.99-1.87-1.99-2.45
	c-14.51-8.4-19.59-28.4-10.9-42.87c0.65-1.09,0.92-2.08,0.59-3.39C0.91,51.29,7.9,33.75,21.68,25.95c3.54-2,5.31-4.7,7.41-7.85
	C35.08,9.17,43.91,4.72,54.58,3.97c2.85-0.2,5.73-0.28,8.55,0.43c1.2,0.3,2.43,0.25,3.46-0.53c5.59-4.26,12.01-4.16,18.52-3.59
	c8.05,0.71,15.36,3.39,21.41,8.82c5.55,4.98,10.27,10.64,12.15,18.12c0.43,1.72,1.54,4.26-0.44,4.98c-2.05,0.75-3.61-1.51-4.38-3.41
	c-2.3-5.67-5.7-10.54-10.23-14.62C97.66,8.79,90.8,5.53,82.6,5.69c-3.02,0.06-6.08-0.44-9,0.95c-2.22,1.06-2.53,1.82-0.66,3.24
	c6.77,5.15,8.57,12.36,8.61,20.32c0.01,1.1,0.05,2.34-1.47,2.58c-1.56,0.25-2.63-0.29-3.24-1.88c-0.73-1.92-0.94-3.95-1.45-5.91
	c-2.41-9.15-6.67-14.76-16.07-15.47c-10.27-0.79-19.17,2.79-25.38,11.36c-3.96,5.46-2.85,13.37,2.14,18.6
	c0.84,0.88,1.66,1.73,2.13,2.87c0.5,1.19,0.66,2.36-0.47,3.28c-1.05,0.86-2.14,0.46-3.08-0.2c-4.17-2.94-6.87-6.93-8.12-11.86
	c-0.98-3.85-0.97-3.92-4.01-1.59c-9.93,7.6-14.13,17.9-13.02,30.09c0.51,5.66,2.88,10.94,8.86,13.41c1.78,0.74,3.15,1.93,3.82,3.8
	c0.35,0.98,0.65,2.01-0.2,2.86c-0.79,0.78-1.7,0.33-2.59,0.05c-3.61-1.15-6.66-3.19-9.29-5.87c-1.33-1.35-2.13-1.45-2.96,0.5
	c-3.54,8.36-0.82,22.01,5.84,28.13c3.25,2.98,7.66,3.88,11.49,5.82C26.91,112,29.52,112.53,31.77,112.26z"/>
<path class="st0" d="M21.63,55.67c0.5,0.03,1-0.05,1.42,0.09c4.06,1.41,7.99,0.9,12.15,0.06c8.06-1.64,15.8-0.31,22.76,4.38
	c1.28,0.86,2.3,0.73,3.47-0.26c2.28-1.92,4.83-3.45,7.79-4.08c1.52-0.33,3.41-0.76,4.08,1.19c0.66,1.92-0.74,3.25-2.38,3.81
	c-3.72,1.28-6.55,3.64-9.17,6.47c-1.76,1.9-3.29,1.67-4.71-0.38c-1.45-2.08-3.62-3.1-5.81-4.09c-4.05-1.83-8.34-2.32-12.73-2.17
	c-1.71,0.06-2.49,0.5-1.4,2.31c1.17,1.93,1.79,4.06,1.57,6.36c-0.13,1.36-0.55,2.62-2.18,2.77c-1.62,0.15-2.91-0.75-3.01-2.25
	c-0.38-5.68-4.17-7.34-8.93-8.05c-1.48-0.22-2.87-0.68-4.15-1.47c-1.24-0.77-2.39-1.64-1.96-3.29
	C18.88,55.33,20.45,55.83,21.63,55.67z"/>
<path class="st0" d="M49.46,21.59c6.83-0.48,14.51,5.01,14.27,13.29c-0.12,4.22-5.04,10.37-9.2,10.99c-1.33,0.2-2.39-0.25-3-1.47
	c-0.57-1.15-0.18-2.21,0.72-3c0.76-0.67,1.63-1.21,2.49-1.75c2.38-1.51,3.22-3.7,2.89-6.41c-0.3-2.56-1.85-4.18-4.11-5.14
	c-1.7-0.72-3.49-1.21-5.37-1.23c-0.74-0.01-1.5,0.02-2.21-0.14c-1.46-0.32-3.1-0.72-3.07-2.6c0.03-1.77,1.65-2.07,3-2.31
	C47.05,21.61,48.27,21.66,49.46,21.59z"/>
<circle class="st0" cx="99.11" cy="43.51" r="16.18"/>
<circle class="st0" cx="99.11" cy="43.51" r="16.18"/>
<path class="st0" d="M156.52,11.21c-9.95,0-29.75,42.2-48.22,51.33c-1.73,1.02-4.35,1.33-6.22,2.03
	C82.96,69.38,19.69,89.68,19.69,99.2c0,3.46,2.81,6.27,6.27,6.27c2.86,0,60.56-27.61,60.3-13.16c3.63,11.58-62.32,91.2-62.32,94.44
	c0,3.46,2.81,6.27,6.27,6.27c3.07,0,50.66-68.49,77.37-53.27c9.8,7.65-20.41,35.04-20.41,38.08c0,3.46,2.81,6.27,6.27,6.27
	c2.71,0,17.69-15.49,21.21-19.7c19.56-23.41,24.24-36.09-6.95-46.87c-6.11-8.45,55.1-93.24,55.1-100.04
	C162.79,14.02,159.98,11.21,156.52,11.21z"/>
<path class="st0" d="M303.08,75.01c14.15,0,24.61,3.11,31.4,9.31c6.78,6.21,10.18,16.1,10.18,29.67v79.04H330.8l-3.68-16.46h-0.87
	c-3.32,4.19-6.75,7.69-10.29,10.5c-3.54,2.81-7.58,4.87-12.13,6.17c-4.55,1.3-10.07,1.95-16.57,1.95c-6.93,0-13.18-1.23-18.73-3.68
	c-5.56-2.45-9.93-6.24-13.1-11.37c-3.18-5.12-4.76-11.59-4.76-19.38c0-11.55,4.55-20.46,13.64-26.74c9.1-6.28,23.1-9.71,42.01-10.29
	l19.71-0.65v-6.93c0-9.67-2.09-16.38-6.28-20.14c-4.19-3.75-10.11-5.63-17.76-5.63c-6.06,0-11.84,0.9-17.32,2.71
	c-5.49,1.81-10.61,3.86-15.38,6.17l-5.85-14.29c5.05-2.74,11.04-5.09,17.97-7.04C288.35,75.98,295.57,75.01,303.08,75.01z
	 M308.71,136.94c-14.44,0.58-24.44,2.89-29.99,6.93c-5.56,4.04-8.34,9.75-8.34,17.11c0,6.5,1.98,11.26,5.95,14.29
	c3.97,3.03,9.06,4.55,15.27,4.55c9.82,0,17.97-2.71,24.47-8.12c6.5-5.41,9.75-13.75,9.75-25.01v-10.39L308.71,136.94z"/>
<path class="st0" d="M397.97,193.03L354.01,76.96h20.36l24.69,68.43c1.15,3.18,2.38,6.71,3.68,10.61c1.3,3.9,2.45,7.62,3.46,11.15
	c1.01,3.54,1.73,6.53,2.17,8.99h0.87c0.57-2.45,1.41-5.48,2.49-9.1c1.08-3.61,2.31-7.36,3.68-11.26c1.37-3.9,2.56-7.36,3.57-10.39
	l24.69-68.43h20.36l-44.18,116.07H397.97z"/>
<path class="st0" d="M519.02,75.01c14.15,0,24.61,3.11,31.4,9.31c6.78,6.21,10.18,16.1,10.18,29.67v79.04h-13.86l-3.68-16.46h-0.87
	c-3.32,4.19-6.75,7.69-10.29,10.5c-3.54,2.81-7.58,4.87-12.13,6.17s-10.07,1.95-16.57,1.95c-6.93,0-13.18-1.23-18.73-3.68
	c-5.56-2.45-9.93-6.24-13.1-11.37c-3.18-5.12-4.76-11.59-4.76-19.38c0-11.55,4.55-20.46,13.64-26.74c9.1-6.28,23.1-9.71,42.01-10.29
	l19.71-0.65v-6.93c0-9.67-2.09-16.38-6.28-20.14c-4.19-3.75-10.11-5.63-17.76-5.63c-6.06,0-11.84,0.9-17.32,2.71
	c-5.49,1.81-10.61,3.86-15.38,6.17l-5.85-14.29c5.05-2.74,11.04-5.09,17.97-7.04C504.3,75.98,511.52,75.01,519.02,75.01z
	 M524.65,136.94c-14.44,0.58-24.44,2.89-29.99,6.93c-5.56,4.04-8.34,9.75-8.34,17.11c0,6.5,1.98,11.26,5.95,14.29
	c3.97,3.03,9.06,4.55,15.27,4.55c9.82,0,17.97-2.71,24.47-8.12c6.5-5.41,9.75-13.75,9.75-25.01v-10.39L524.65,136.94z"/>
<path class="st0" d="M634.23,74.79c13.86,0,24.32,3.36,31.4,10.07c7.07,6.71,10.61,17.58,10.61,32.59v75.58H657.4v-74.28
	c0-9.38-2.09-16.38-6.28-21.01c-4.19-4.62-10.76-6.93-19.71-6.93c-12.85,0-21.73,3.61-26.64,10.83c-4.91,7.22-7.36,17.62-7.36,31.18
	v60.2h-19.06V76.96h15.38l2.81,15.81h1.08c2.6-4.04,5.81-7.4,9.64-10.07c3.82-2.67,8.05-4.66,12.67-5.96
	C624.56,75.44,629.32,74.79,634.23,74.79z"/>
<path class="st0" d="M783.07,193.03h-84.89v-12.56l62.37-88.79h-58.69V76.96h79.69v14.29l-61.5,87.06h63.02V193.03z"/>
<path class="st0" d="M852.39,75.01c14.15,0,24.61,3.11,31.4,9.31c6.78,6.21,10.18,16.1,10.18,29.67v79.04h-13.86l-3.68-16.46h-0.87
	c-3.32,4.19-6.75,7.69-10.29,10.5c-3.54,2.81-7.58,4.87-12.13,6.17c-4.55,1.3-10.07,1.95-16.57,1.95c-6.93,0-13.18-1.23-18.73-3.68
	c-5.56-2.45-9.93-6.24-13.1-11.37c-3.18-5.12-4.76-11.59-4.76-19.38c0-11.55,4.55-20.46,13.64-26.74
	c9.09-6.28,23.1-9.71,42.01-10.29l19.71-0.65v-6.93c0-9.67-2.09-16.38-6.28-20.14c-4.19-3.75-10.11-5.63-17.76-5.63
	c-6.06,0-11.84,0.9-17.32,2.71c-5.49,1.81-10.61,3.86-15.38,6.17l-5.85-14.29c5.05-2.74,11.04-5.09,17.97-7.04
	C837.67,75.98,844.88,75.01,852.39,75.01z M858.02,136.94c-14.44,0.58-24.44,2.89-29.99,6.93c-5.56,4.04-8.34,9.75-8.34,17.11
	c0,6.5,1.98,11.26,5.95,14.29c3.97,3.03,9.06,4.55,15.27,4.55c9.82,0,17.97-2.71,24.47-8.12c6.5-5.41,9.74-13.75,9.74-25.01v-10.39
	L858.02,136.94z"/>
<path class="st0" d="M969.82,74.79c2.17,0,4.51,0.11,7.04,0.33c2.52,0.22,4.73,0.54,6.61,0.97l-2.38,17.54
	c-1.88-0.43-3.93-0.79-6.17-1.08c-2.24-0.29-4.37-0.43-6.39-0.43c-4.48,0-8.74,0.94-12.78,2.82c-4.04,1.88-7.65,4.51-10.83,7.9
	c-3.18,3.39-5.67,7.47-7.47,12.24c-1.81,4.76-2.71,10.11-2.71,16.03v61.93h-19.06V76.96h15.59l2.17,21.22h0.87
	c2.45-4.33,5.41-8.26,8.88-11.8c3.46-3.54,7.43-6.35,11.91-8.45C959.57,75.84,964.48,74.79,969.82,74.79z"/>
<g>
	<path class="st0" d="M146.27,63.9c-0.04,0.06-0.08,0.12-0.12,0.18c-0.32,1.3-0.64,2.61-0.96,3.9L146.27,63.9z"/>
	<path class="st0" d="M178.71,12.4h-7.12c0.54,1.6,0.85,3.31,0.85,5.08c0,4.57-2.14,8.69-18.39,34.21c0.21,0.89,0.43,1.8,0.66,2.75
		c1.41,5.81,2.82,11.41,4.23,16.79c1.41,5.39,2.53,9.42,3.36,12.07l10.2,34.33h-42.93c4.44,3.39,7.96,7.67,9.5,13.21
		c2.05,7.38-0.09,14.8-4.19,22.12h47.08l11.2,37.82h46.52L178.71,12.4z"/>
</g>
</svg>
