<?xml version="1.0" encoding="utf-8"?>
<!-- Generator: Adobe Illustrator 24.0.2, SVG Export Plug-In . SVG Version: 6.00 Build 0)  -->
<svg version="1.1" id="Layer_1" xmlns="http://www.w3.org/2000/svg" xmlns:xlink="http://www.w3.org/1999/xlink" x="0px" y="0px"
	 viewBox="0 0 649.16 490.7" style="enable-background:new 0 0 649.16 490.7;" xml:space="preserve">
<style type="text/css">
	.st0{fill-rule:evenodd;clip-rule:evenodd;fill:#FFFFFF;}
</style>
<g>
	<g>
		<path class="st0" d="M206.54,159.5c0-44.99,0.4-89.99-0.22-134.97C206.1,9.11,218.03-0.49,231.07-0.38
			c62.15,0.52,124.31,0.49,186.46,0.02c12.81-0.1,24.69,9.44,24.62,24.56c-0.4,90.81-0.19,181.63-0.21,272.44
			c0,14.23-8.63,23.45-22.78,23.48c-63.32,0.14-126.64,0.15-189.96,0c-13.74-0.03-22.63-9.49-22.63-23.16
			c-0.02-45.82-0.01-91.65-0.01-137.47C206.55,159.5,206.54,159.5,206.54,159.5z M212.9,160.02c0,44.16-0.01,88.32,0.01,132.47
			c0.01,14.71,5.95,20.72,20.5,20.72c60.99,0.02,121.98,0.02,182.96,0.02c1.17,0,2.34,0.03,3.5-0.08
			c8.25-0.77,13.45-5.45,14.87-13.61c0.48-2.77,0.71-5.62,0.71-8.43c0.05-34.49,0.03-68.99,0.02-103.48
			c0-53.66-0.01-107.31-0.01-160.97c0-12.58-5.88-19.98-19.74-19.9c-60.32,0.36-120.64,0.16-180.96,0.17c-2.33,0-4.67-0.02-7,0.11
			c-6.53,0.37-11.84,4.35-13.56,10.67c-0.86,3.16-1.25,6.55-1.26,9.84C212.88,71.7,212.9,115.86,212.9,160.02z"/>
		<path class="st0" d="M19.67,462.24c0.4-3.36,1.21-6.74,1.13-10.09c-0.58-23.47-1.33-46.93-2.05-70.39
			c-0.12-3.95-1.5-6.8-6.08-6.97c-1-0.04-1.98-0.62-4.08-1.33c1.95-0.77,2.78-1.33,3.65-1.4c4.5-0.35,5.77-3.42,6.11-7.2
			c0.54-5.96,0.63-11.98,1.51-17.88c2.48-16.51,12.45-25.13,29-24.88c5.41,0.08,10.79,1.76,16.21,1.9c2.66,0.07,5.36-1.71,8.5-2.81
			c0.06,0.95,0.27,2.66,0.27,4.37c0.01,27.67,0,55.33,0,83c0,1.33-0.26,2.74,0.07,3.98c0.61,2.29,1,5.26,2.6,6.44
			c1.06,0.79,4.08-0.99,6.18-1.72c0.74-0.26,1.37-0.83,2.27-1.41c-1.9,8.01-11.31,13.58-18.39,10.71c-1.99-0.8-4.03-3.19-4.66-5.27
			c-1.03-3.43-1.3-7.2-1.26-10.83c0.23-22.82,0.61-45.64,0.98-68.46c0.11-6.95-3.59-11.74-9.12-15.02
			c-6.93-4.11-14.85-1.47-17.16,6.71c-2.36,8.36-3.83,17.29-3.72,25.95c0.14,10.97,1,10.88,11.93,11.36c1.5,0.06,2.95,1.3,4.42,2
			c-1.46,1.35-2.72,3.1-4.44,3.91c-1.36,0.65-3.36,0.48-4.92,0.08c-5.61-1.42-6.29,1.4-6.16,6.08c0.55,19.81,0.96,39.63,1.1,59.45
			c0.03,4.07-1.05,8.22-2.11,12.2c-1.72,6.44-5.9,10.56-12.82,10.58c-4.57,0.01-9.39-0.2-13.6-1.7c-2.3-0.82-4.13-4.34-5.03-7.03
			c-0.32-0.95,2.51-3.83,4.36-4.42c3.37-1.09,6.56,0.07,8.57,3.4c1.46,2.43,2.98,4.83,4.48,7.25
			C18.18,462.6,18.92,462.42,19.67,462.24z"/>
		<path class="st0" d="M519.65,415.6c-1.85,8.2-12.5,14.39-18.99,10.79c-2.48-1.37-4.65-5.4-4.87-8.37
			c-0.66-8.78-0.2-17.64-0.34-26.46c-0.04-2.63-0.12-5.47-1.11-7.82c-1.01-2.39-3.03-5.86-4.85-6.02c-2.6-0.23-6.87,1.43-7.9,3.52
			c-3.25,6.61-5.99,13.65-7.65,20.82c-1.4,6.07-1.03,12.55-1.41,18.85c-0.33,5.57-2.63,6.84-10.44,6.22c-5-0.39-3.95-3.57-3.83-6.83
			c0.34-9.31,0.48-18.64,0.53-27.96c0.08-16.49,0.05-32.97,0.03-49.46c-0.01-9.5-0.83-10.25-10.27-9.99
			c1.68-0.97,3.31-2.02,5.04-2.89c4.76-2.39,9.57-4.68,14.34-7.05c2.72-1.36,4.14-0.36,4.48,2.44c0.2,1.65,0.18,3.32,0.17,4.99
			c-0.07,18.15-0.15,36.3-0.23,54.45c0,0.94,0,1.88,1.07,3.14c0.9-1.86,1.77-3.73,2.7-5.57c3.29-6.48,7.8-11.53,15.24-13.34
			c7.48-1.82,14.73,1.8,16.09,9.37c1.28,7.13,1.15,14.52,1.45,21.81c0.19,4.49-0.2,9.01,0.13,13.48c0.14,1.92,0.96,4.45,2.36,5.38
			c0.97,0.65,3.48-0.89,5.23-1.6C517.58,417.12,518.41,416.4,519.65,415.6z"/>
		<path class="st0" d="M619.26,461.8c-8.97,1.28-17.94,2.56-26.91,3.83c5.12-3.85,5.41-9,5.4-14.37c-0.05-20-0.01-40-0.03-60
			c0-1.78-0.16-3.55-0.3-6.21c-2.67,1.29-4.65,2.25-6.62,3.2c-0.24-0.48-0.55-0.94-0.49-0.99c4.87-4.19,9.01-8.69,7.87-15.91
			c-0.1-0.63,1.1-1.58,1.84-2.19c3.54-2.94,7.14-5.82,11.22-9.14c0.23,3.86,0.45,7.68,0.72,12.37c3.46-0.75,6.57-1.61,9.74-2.08
			c6.84-1.01,13.64-1.38,19.72,2.92c5.08,3.6,6.55,9.04,7.41,14.73c2.17,14.37-6.5,30.37-19.91,35.85
			c-3.88,1.59-8.39,1.96-12.65,2.2c-3.47,0.2-4.73,1.43-4.67,4.8c0.12,6.67,0.01,13.33,0.03,20
			C611.65,458.31,612.14,458.92,619.26,461.8z M611.67,398.54c-0.01,0-0.02,0-0.03,0c0,5.65-0.15,11.32,0.09,16.96
			c0.07,1.6,0.8,3.83,2,4.62c7.71,5.11,18.71,0.78,20.51-8.34c1.11-5.63,1.61-11.61,1.06-17.3c-1.28-13.4-6.91-18.04-19.22-17.44
			c-3.22,0.16-4.47,1.42-4.42,4.53C611.73,387.23,611.67,392.89,611.67,398.54z"/>
		<path class="st0" d="M207.67,421.07c-4.33,2.21-8.1,4.86-12.29,6.14c-13.68,4.19-25.94-6.66-23.46-20.81
			c1.11-6.33,3.36-12.46,5.12-18.68c0.4-1.41,0.89-2.8,1.32-4.14c-6.58-3.52-15.86-1.87-20.68,3.48c-2.5-7.94,3-16.03,11.08-16.2
			c4.16-0.08,8.33,0.04,12.49-0.02c3.44-0.05,4.77,1.1,3.96,4.85c-1.34,6.17-2.8,12.42-2.99,18.68c-0.15,4.99,0.82,10.28,2.53,14.99
			c2.03,5.57,8.48,8.3,13.43,7.01c3.74-0.98,5.23-2.89,4.1-6.92c-2.81-10.04-3.92-20.23-1.81-30.6c1.25-6.11,4.55-9.38,9.4-9.03
			c4.73,0.33,7.73,4.16,7.91,10.42c0.27,9.33,0.39,18.63-3.55,27.47c-0.52,1.17-0.24,3.65,0.62,4.35
			c8.64,7.08,20.83,6.78,24.66-5.19c2.57-8.05,1.62-15.43-4.85-21.56c-2.05-1.94-4.19-3.9-5.74-6.21c-3.21-4.8-0.64-9.97,5.04-9.61
			c2.99,0.19,6.91,1.54,8.61,3.75c9.43,12.2,3.26,42.93-9.88,51.3c-8.52,5.42-15.42,4.81-23.11-2.03
			C208.88,421.89,208.05,421.36,207.67,421.07z M207.7,405.27c0.8-0.08,1.6-0.16,2.4-0.24c2.2-5.55,4.6-11.08,3.13-17.41
			c-0.73-3.15-2.74-4.86-6.14-4.44c-3.44,0.43-4.59,3.06-4.01,5.76C204.26,394.46,206.12,399.83,207.7,405.27z"/>
		<path class="st0" d="M385.1,396.68c1.5,2.63,2.8,5.42,4.55,7.87c3.65,5.11,7.16,10.41,11.43,14.97
			c4.45,4.76,10.45,5.55,16.64,3.62c4.04-1.26,6.3-4.22,6.88-8.36c1.25-8.87-1.17-16.62-8.01-22.49c-4.53-3.88-9.6-7.12-14.39-10.7
			c-3.73-2.78-7.73-5.3-11.02-8.54c-11.48-11.29-8.17-28.44,6.62-34.81c11.25-4.85,22.77-3.99,34.22-0.79
			c1.46,0.41,3.48,2.29,3.54,3.58c0.36,6.7,0.17,13.43,0.17,20.16c-0.49,0.14-0.98,0.27-1.47,0.41c-1.11-2.05-2.34-4.05-3.31-6.16
			c-2.74-5.98-5.99-11.51-11.95-14.91c-6.68-3.81-13.75-3.07-18.26,1.94c-3.74,4.16-4.09,12.3,0.35,17.61
			c3.56,4.26,8.2,7.68,12.63,11.13c5.63,4.39,12.04,7.89,17.22,12.72c14.54,13.55,10.65,34.06-7.81,41.48
			c-11.54,4.63-23.23,2.97-34.55-1.36c-1.66-0.64-3.88-2.49-4.02-3.95c-0.75-7.64-0.9-15.33-1.27-23
			C383.89,396.94,384.49,396.81,385.1,396.68z"/>
		<path class="st0" d="M150.71,396.76c1.17,24.85-21.31,35.68-38.1,30.11c-12.04-3.99-17.86-14.8-17.61-28.38
			c0.29-15.85,8.58-25.71,23.48-29.17c16.84-3.91,31.96,7.94,32.23,25.25C150.72,395.57,150.71,396.57,150.71,396.76z M136.5,404.25
			c-0.25-0.04-0.49-0.08-0.74-0.12c0-2.33,0.19-4.69-0.04-7c-0.77-7.75-2.48-15.34-8.49-20.74c-2.33-2.09-6.69-4.28-9.01-3.43
			c-2.99,1.1-6,4.87-7.01,8.11c-3.13,10.01-1.84,20.17,1.82,29.85c1.43,3.78,3.79,7.51,6.61,10.4c5.19,5.33,11.62,3.98,14.18-3.02
			C135.44,413.89,135.65,408.95,136.5,404.25z"/>
		<path class="st0" d="M584.37,397.63c-0.87,21.04-18.2,34.74-38.07,29.56c-10.15-2.64-15.45-10.06-17.83-19.64
			c-4.35-17.44,4.28-36.72,26.25-38.97c10.38-1.06,21.39,3.28,26.05,15.23C582.48,388.23,583.2,393.02,584.37,397.63z M569.2,403.78
			c-0.18-0.03-0.36-0.06-0.55-0.09c0-1.83,0.17-3.68-0.03-5.49c-0.81-7.54-2.52-14.84-7.56-20.77c-2.72-3.19-6.5-6.78-10.64-4.56
			c-3.19,1.71-5.08,5.98-7.31,9.28c-0.68,1.01-0.65,2.56-0.8,3.87c-1.43,12.18,0.63,23.69,8.1,33.54c1.88,2.47,6,4.2,9.23,4.44
			c4.02,0.31,6.48-3.28,7.38-7.02C568.09,412.67,568.51,408.19,569.2,403.78z"/>
		<path class="st0" d="M309.14,418.95c-6.42,7.36-15.02,9.58-24.42,8.87c-11.24-0.84-19.04-6.92-22.39-17.7
			c-3.85-12.37-1.07-23.56,8.47-32.38c8.38-7.74,18.3-11.44,29.83-7.95c7.56,2.28,9.16,8.31,3.74,14.1
			c-5.58,5.96-12.96,8.5-20.61,10.49c-9.42,2.45-9.41,2.51-6.58,11.71c4.33,14.1,15.54,18.97,29.03,12.63
			c0.73-0.34,1.51-0.58,2.27-0.87C308.69,418.21,308.92,418.58,309.14,418.95z M275.41,392.85c9.04,0.14,16.94-6.17,16.15-12.98
			c-0.26-2.25-2.04-5.55-3.81-6.1c-2.13-0.65-5.91,0.35-7.37,2.03C276.23,380.56,275.52,386.66,275.41,392.85z"/>
		<path class="st0" d="M314.88,381.96c3.12-7.92,9.75-12.94,17.25-12.3c11.04,0.94,7.58,10.81,9.68,18.42
			c1.95-4.77,3.14-8.55,4.97-11.99c3.59-6.74,9.76-8.59,15.91-5c2.83,1.65,5.28,3.69,3.94,7.62c-1.36,3.98-4.98,6.18-8.94,5.38
			c-9.72-1.96-10.66-1.74-12.71,8.22c-1.94,9.4-2.99,19.01-4.06,28.57c-0.6,5.35-1.45,6.06-7.8,6.36c-4.98,0.24-5.77-2.15-5.71-6.34
			c0.17-11.98,0.2-23.98-0.05-35.96c-0.05-2.54-1.55-5.04-2.38-7.56c-2.45,1.01-4.9,2-7.33,3.05
			C316.8,380.79,316.04,381.31,314.88,381.96z"/>
		<path class="st0" d="M361.76,490.7c-2.26,0-5.14,0-7.58,0c0.41-6.19,0.79-12.01,1.18-17.82c-0.53-0.11-1.05-0.22-1.58-0.33
			c-1.66,4.7-3.12,9.49-5.08,14.06c-0.73,1.7-2.65,2.89-4.03,4.31c-1.4-1.43-3.34-2.62-4.1-4.33c-1.94-4.36-3.35-8.95-4.98-13.44
			c-0.6,0.08-1.21,0.16-1.81,0.23c0.35,5.58,0.71,11.17,1.09,17.2c-1.41,0-3.71,0-6.14,0c3.01-6.25,2.96-20.5,0.04-25.88
			c8.15-2.47,9.91-1.67,12.6,5.88c1.37,3.83,2.65,7.68,3.98,11.52c0.51,0.01,1.03,0.02,1.54,0.04c1.36-3.82,2.77-7.62,4.07-11.47
			c2.54-7.52,3.55-8.08,10.8-6.36C361.76,473,361.76,481.49,361.76,490.7z"/>
		<path class="st0" d="M368.09,491.32c2.4-9.61,2.59-18.06,0-27.13c6.65,0,13.54-0.5,20.3,0.2c3.64,0.38,4.48,4.08,3.58,7.55
			c-0.36,1.4-1.19,2.67-1.8,4.01c1.27,1.5,2.67,2.73,3.55,4.27c2.15,3.72,0.19,9.38-4.15,9.98
			C382.49,491.17,375.25,491,368.09,491.32z M380.88,488.02c4.14,0.1,7.29-1.03,7.2-5.29c-0.1-4.64-4-4.41-7.3-4.66
			c-3.71-0.29-4.75,1.57-4.84,5.06C375.83,487.19,377.57,488.52,380.88,488.02z M381.49,475.95c1.44-1.56,3.77-2.95,4.13-4.73
			c0.73-3.57-2.22-4.24-5.11-4.39c-2.69-0.14-4.49,0.57-4.52,3.79C375.95,473.83,377.3,475.28,381.49,475.95z"/>
		<path class="st0" d="M265.43,476.82c-0.22,10.41-5.17,15.39-15.03,15.1c-8.62-0.25-13.61-5.64-13.49-14.56
			c0.12-9.28,5.91-14.79,15.29-14.54C260.99,463.06,265.61,467.95,265.43,476.82z M259.7,476.68c-0.17-0.9-0.48-2.52-0.77-4.15
			c-0.78-4.51-3.42-6.66-8-6.25c-4.43,0.39-7.05,2.79-7.32,7.28c-0.17,2.8-0.23,5.67,0.18,8.43c0.57,3.92,2.93,6.08,7.15,6.1
			C256.87,488.11,259.71,484.77,259.7,476.68z"/>
		<path class="st0" d="M296.66,477.86c-0.03-10.08,4.78-15.15,14.32-15.06c8.86,0.08,13.87,5.12,13.94,14.03
			c0.08,9.55-5.29,15.1-14.65,15.11C301.43,491.97,296.69,487.06,296.66,477.86z M318.62,477.25c0-0.99,0.05-1.99-0.01-2.98
			c-0.32-5.12-2.99-7.92-7.62-8c-4.73-0.09-7.8,2.44-8.16,7.46c-0.23,3.25,0.1,6.62,0.77,9.82c0.64,3.06,2.9,4.52,6.24,4.54
			C316.29,488.12,318.64,485.36,318.62,477.25z"/>
		<path class="st0" d="M442.47,490.76c-3.35,0-6.76,0-9.65,0c0-2.01,0.21-5.41-0.03-5.45c-3.49-0.46-7.05-0.62-10.56-0.36
			c-0.33,0.02-0.42,3.32-0.68,5.66c-1.54,0-4,0-5.97,0c3.04-7.57,5.79-14.94,9.02-22.09c0.85-1.89,3.02-4.06,4.85-4.33
			c1.26-0.19,3.59,2.41,4.36,4.22C436.85,475.54,439.46,482.87,442.47,490.76z M430.25,481.07c0.38-0.47,0.75-0.94,1.13-1.41
			c-1.13-3-2.25-6-3.38-9c-0.65,0.07-1.29,0.13-1.94,0.2c-0.55,2.94-1.36,5.87-1.38,8.81C424.69,480.12,428.31,480.6,430.25,481.07z
			"/>
		<path class="st0" d="M233.41,471.28c-4.37-1.83-8-3.7-11.86-4.77c-1.32-0.36-3.55,0.94-4.77,2.11
			c-3.66,3.48-3.86,12.89-0.63,16.77c3.34,4.02,7.79,3.34,16.7-2.54c0.4,0.26,0.8,0.52,1.19,0.77c-1.45,1.98-2.53,4.47-4.42,5.85
			c-5.21,3.82-12.82,3.14-17.57-1.07c-4.49-3.98-5.94-12.79-3.04-18.47c2.77-5.43,9.77-8.32,16.3-6.76c2.52,0.6,5.06,1.16,8.37,1.92
			C233.6,467.2,233.49,469.61,233.41,471.28z"/>
		<path class="st0" d="M292.08,480.58c3.27,7.38,1.57,10.47-5.23,10.52c-5.61,0.04-11.21,0.01-16.94,0.01
			c1.95-9.29,2.92-17.91-0.48-26.85c3.43,0,7.07,0,10.82,0c-4.67,7.17-2.54,14.82-1.98,22.11c0.23,3.06,9.45,2.14,11.53-1.25
			C290.61,483.8,291.21,482.33,292.08,480.58z"/>
		<path class="st0" d="M408.66,490.79c-2.43,0-5.5,0-8.65,0c2.42-8.9,2.57-17.5,0-26.53c2.96,0,6.13,0,8.65,0
			C408.66,472.98,408.66,481.49,408.66,490.79z"/>
		<path class="st0" d="M325.5,129.16c-22.26-0.01-40.39-16.42-42-38.64c-0.93-12.72-3.4-25.01-7.66-36.99
			c-1.82-5.13,0.13-8.55,5.51-8.32c6.08,0.26,12.2,1.38,18.14,2.8c3.72,0.89,6.35,0.36,8.95-2.34c3.58-3.72,7.52-7.08,11.07-10.81
			c3.33-3.52,6.53-3.45,9.96-0.37c4.08,3.67,8.24,7.26,12.17,11.09c2.5,2.43,4.92,2.35,8.16,1.59c6.26-1.48,12.66-2.6,19.07-3.13
			c4.5-0.37,6.55,2.42,5.12,6.75c-4.42,13.4-5.77,27.12-6.7,41.15C365.89,113.03,346.86,129.17,325.5,129.16z M361.51,54.88
			c-2.65,0.52-4.25,0.74-5.8,1.15c-23.9,6.36-39.93,28.2-39.14,53.29c0.2,6.5,4.11,10.02,10.67,9.61
			c14.1-0.88,25.95-10.2,28.91-24.11c1.78-8.38,1.68-17.15,2.68-25.71C359.35,64.7,360.45,60.38,361.51,54.88z M304.45,110.73
			c0.66-1.15,0.94-1.43,0.96-1.72c1.02-13.09,3.55-25.69,11.15-36.83c0.56-0.82-0.32-3.79-1.31-4.33
			c-7.09-3.87-14.23-7.75-21.67-10.85c-4.28-1.79-5.12-0.34-4.34,4.37c1.61,9.66,3,19.36,4.36,29.06
			C294.73,98.41,297.78,105.26,304.45,110.73z M315.41,53.82c7.95,9.12,12.71,8.95,18.56-0.36
			C324.76,42.23,323.95,43.17,315.41,53.82z"/>
		<path class="st0" d="M311.51,224.63c0-6.17-0.18-12.34,0.06-18.49c0.18-4.43-1.23-6.57-5.97-6.1c-4.3,0.43-7.93-1.22-10.33-4.83
			c-0.83-1.25-1.38-3.19-1.03-4.54c0.2-0.77,2.47-1.28,3.85-1.4c2.48-0.22,5.02-0.27,7.49-0.03c4.67,0.46,6.22-1.71,7.07-6.15
			c1.58-8.27,3.16-16.71,6.23-24.49c7.73-19.57,28.05-30.16,47.65-25.7c11.89,2.71,18.92,14.61,15.06,25.51
			c-2.17,6.12-8.12,9.83-13.44,8.38c-5.71-1.56-9.44-8.52-7.73-14.89c0.69-2.54,1.82-5.02,3.07-7.35c1.61-3,0.71-4.46-2.33-5.6
			c-9.36-3.53-22.45,0.9-26.41,10.38c-3.02,7.24-4.25,15.26-5.89,23.01c-0.61,2.87-0.11,5.98-0.1,8.98
			c0.01,7.84,0.02,7.78,8.01,7.89c5.27,0.08,10.94-0.78,14.77,4.1c1.11,1.41,1.34,3.51,1.97,5.3c-1.65,0.5-3.28,1.36-4.95,1.43
			c-4.83,0.2-9.67,0.28-14.49,0.02c-4.23-0.23-5.36,1.54-5.4,5.56c-0.11,9.47,0.01,19.03-1.23,28.39
			c-2.24,16.8-8.17,32.01-23.14,41.88c-9.55,6.3-20.14,7.68-31.15,5.04c-10.55-2.53-17.08-11.9-15.11-22.48
			c0.66-3.54,3.18-7.46,6.02-9.72c5.46-4.35,13.06-1.25,15.1,5.45c1.55,5.09,0.62,9.88-1.87,14.45c-2.33,4.28-1.84,5.54,2.76,6.88
			c9.68,2.83,21.8-1.96,25.77-11.29c2.76-6.49,4.47-13.6,5.48-20.61C312.22,237.39,311.51,230.96,311.51,224.63z"/>
		<path class="st0" d="M283.52,146.85c6.36-2.5,12.83-5.71,19.66-7.55c7.29-1.96,8.95-0.02,8.38,7.49
			c-1.02,13.37-12.23,22.52-27.89,23.11c-6.22,0.23-12.42,1.12-19.76,1.81c-0.54-10.13,2.73-19.77,9.34-28.32
			c7.62-9.85,17.91-12.94,30.15-10.71C295.92,136.7,287.48,139.41,283.52,146.85z"/>
	</g>
</g>
</svg>
