<?xml version="1.0" encoding="UTF-8"?>
<svg xmlns="http://www.w3.org/2000/svg" xmlns:xlink="http://www.w3.org/1999/xlink" version="1.1" id="Layer_1" x="0px" y="0px" width="1679.664px" height="523.514px" viewBox="0 0 1679.664 523.514" xml:space="preserve">
<g>
	<path fill="#FFFFFF" d="M0,88.182C4.461,75.33,6.022,74.085,20.113,74.075c86.976-0.061,173.953-0.072,260.929-0.041   c14.747,0.004,19.706,5.025,19.806,19.754c0.087,12.591,0.1,25.184,0.005,37.775c-0.107,14.096-5.442,19.604-19.408,19.673   c-25.881,0.128-51.763,0.052-77.645,0.044c-13.68-0.004-14.841,1.083-14.839,14.564c0.019,109.828,0.06,219.656,0.061,329.483   c0,5.126-0.026,10.28-0.538,15.37c-0.849,8.444-4.602,12.429-12.972,12.611c-16.534,0.362-33.087,0.41-49.619,0.012   c-9.548-0.23-13.147-4.277-13.884-13.959c-0.371-4.875-0.416-9.782-0.414-14.677c0.038-108.896,0.1-217.792,0.166-326.687   c0.009-15.84-0.859-16.736-16.398-16.738c-24.949-0.003-49.902,0.256-74.845-0.136C5.132,150.887,4.687,150.097,0,135.772   C0,119.909,0,104.046,0,88.182z"></path>
	<path fill="#FFFFFF" d="M1679.664,442.313c-3.852,8.854-10.838,12.155-20.182,11.807c-7.453-0.279-14.927,0.021-22.386-0.171   c-13.946-0.358-17.278-2.798-21.73-16.083c-7.544-22.516-14.938-45.079-22.429-67.611c-13.519-40.653-27.041-81.306-40.625-121.938   c-1.25-3.74-2.527-7.584-4.529-10.938c-5.051-8.453-16.287-8.34-21.112,0.257c-2.255,4.017-3.718,8.523-5.197,12.924   c-16.333,48.54-32.594,97.104-48.889,145.657c-0.89,2.647-2.072,5.205-2.832,7.885c-2.072,7.306-6.72,10.696-14.38,10.5   c-11.186-0.285-22.398,0.155-33.562-0.449c-10.323-0.563-13.646-4.977-12.18-15.089c0.599-4.115,1.783-8.192,3.108-12.149   c29.438-87.854,58.927-175.694,88.435-263.525c4.404-13.106,7.884-15.503,21.992-15.533c9.562-0.02,19.124-0.048,28.686,0.008   c14.473,0.085,18.179,2.701,22.802,16.606c10.283,30.925,20.44,61.893,30.668,92.837c23.522,71.171,47.045,142.341,70.637,213.49   c0.852,2.567,2.453,4.885,3.705,7.318C1679.664,439.512,1679.664,440.912,1679.664,442.313z"></path>
	<path fill="#FFFFFF" d="M351.33,0c0.424,16.511,0.937,33.02,1.243,49.533c0.216,11.645,0.044,23.296,0.25,34.941   c0.143,8.126,1.932,9.906,9.958,9.977c8.85,0.079,17.703-0.224,26.555-0.183c2.271,0.01,4.999,0.052,6.677,1.253   c1.527,1.093,2.355,3.735,2.561,5.787c0.071,0.71-2.648,2.429-4.109,2.448c-15.371,0.208-30.746,0.15-46.119,0.198   c-5.89,0.018-5.814-4.093-5.797-8.211c0.125-28.42,0.248-56.839,0.368-85.259c0.015-3.495,0.012-6.989,0.017-10.483   C345.73,0,348.53,0,351.33,0z"></path>
	<path fill="#FFFFFF" d="M869.232,272.954c0-57.14-0.016-114.281,0.008-171.422c0.008-24.298,3.521-27.836,27.964-27.795   c39.182,0.065,78.365,0.019,117.544,0.43c72.092,0.756,131.791,55.513,138.516,127.283c5.497,58.661-17.309,103.795-66.389,136.035   c-16.325,10.723-19.566,7.561-4.818,27.048c31.653,41.832,63.23,83.723,94.788,125.627c2.657,3.527,5.328,7.139,7.324,11.052   c5.653,11.081-0.424,21.993-12.795,22.322c-19.346,0.514-38.711,0.305-58.066,0.486c-7.063,0.065-11.743-3.818-15.663-9.031   c-25.227-33.536-50.412-67.104-75.649-100.631c-11.355-15.086-22.572-30.285-34.282-45.094   c-7.715-9.757-23.477-13.713-34.817-8.438c-2.731,1.271-4.952,6.593-5.041,10.11c-0.521,20.512-0.236,41.043-0.438,61.563   c-0.097,9.777-0.537,19.559-1.054,29.323c-0.37,7.003-4.85,10.859-11.341,11.001c-17.704,0.381-35.429,0.369-53.135-0.026   c-6.494-0.145-10.796-4.03-11.379-11.003c-0.389-4.638-1.016-9.28-1.021-13.921c-0.069-58.309-0.048-116.613-0.048-174.921   C869.371,272.954,869.303,272.954,869.232,272.954z M947.91,215.115c-0.021,0-0.041,0-0.062,0c0,18.663,0.125,37.326-0.065,55.987   c-0.068,6.686,2.33,9.807,9.382,9.662c19.356-0.395,38.735,0.027,58.078-0.68c30.942-1.13,57.709-26.256,59.781-55.378   c2.659-37.358-17.16-66.117-51.546-70.699c-22.047-2.938-44.642-1.676-66.979-2.596c-6.914-0.285-8.802,2.655-8.696,9.119   C948.104,178.721,947.91,196.919,947.91,215.115z"></path>
	<path fill="#FFFFFF" d="M590.638,223.918c0,43.142,0.573,86.291-0.141,129.419c-0.956,57.837-40.935,105.623-97.722,118.262   c-53.617,11.933-111.167-15.717-136.445-65.742c-8.089-16.01-12.932-33.155-13.021-51.057c-0.365-73.22-0.302-146.442-0.21-219.663   c0.017-12.954,3.813-16.811,16.624-17.249c12.343-0.421,24.724-0.402,37.064,0.04c11.138,0.398,14.319,3.752,15.396,14.783   c0.431,4.399,0.533,8.845,0.537,13.269c0.051,67.393,0,134.787,0.11,202.179c0.044,27.533,18.877,50.617,44.499,55.013   c33.638,5.771,63.115-18.667,63.264-52.974c0.248-57.364,0.125-114.731,0.151-172.096c0.012-26.119,0-52.236,0.01-78.354   c0.001-3.031-0.006-6.066,0.131-9.092c0.595-13.237,4.087-16.947,17.341-17.404c11.415-0.394,22.854-0.507,34.271-0.269   c14.123,0.293,17.607,3.967,18.14,18.021c0.115,3.028,0.108,6.062,0.109,9.093c0.006,41.274,0.004,82.548,0.004,123.823   C590.712,223.918,590.675,223.918,590.638,223.918z"></path>
	<path fill="#FFFFFF" d="M1264.139,347.627c0,2.669,0.006,5.34,0,8.009c-0.063,34.516-0.052,69.031-0.234,103.547   c-0.059,10.857-2.934,13.873-13.628,14.104c-12.116,0.26-24.252,0.182-36.368-0.173c-7.914-0.232-10.772-3.276-11.479-11.111   c-0.313-3.477-0.342-6.986-0.342-10.48c-0.01-90.724-0.004-181.444,0.022-272.167c0.002-4.429,0.127-8.862,0.361-13.285   c0.441-8.389,3.636-11.75,12.205-11.993c10.485-0.296,20.986-0.153,31.479-0.125c14.707,0.041,17.822,2.92,17.885,17.459   c0.143,33.116,0.062,66.234,0.121,99.352c0.006,2.864,0.389,5.729,0.751,10.748c3.084-4.203,4.906-6.535,6.569-8.977   c24.405-35.833,48.946-71.575,73.063-107.6c5.818-8.691,12.994-12.628,23.353-12.146c11.175,0.521,22.396,0.032,33.574,0.472   c15.293,0.604,20.323,9.463,11.863,22.249c-24.046,36.349-48.646,72.333-73.039,108.451c-4.177,6.182-8.434,12.307-12.626,18.475   c-7.271,10.692-7.289,11.836-0.081,22.336c25.591,37.28,51.188,74.559,76.807,111.82c12.413,18.056,24.803,36.125,37.363,54.077   c3.725,5.323,5.797,10.585,2.608,16.867c-3.222,6.347-9.024,6.532-15.002,6.521c-10.728-0.019-21.479-0.414-32.176,0.195   c-10.997,0.625-18.43-3.798-24.538-12.758c-32.434-47.567-65.159-94.938-97.813-142.355c-2.824-4.102-5.846-8.067-8.774-12.097   C1265.421,347.233,1264.781,347.431,1264.139,347.627z"></path>
	<path fill="#FFFFFF" d="M828.254,313.821c-0.001,43.846,0.029,87.691-0.039,131.538c-0.008,5.584-0.623,11.164-0.775,16.751   c-0.19,6.986-3.61,10.835-10.6,11.385c-4.179,0.328-8.366,0.783-12.55,0.787c-51.075,0.056-102.151,0.031-153.227,0.043   c-22.067,0.005-22.955-2.958-22.967-20.396c-0.006-10.001-0.333-20.025,0.271-29.994c0.515-8.501,3.245-10.719,11.846-11.646   c3.004-0.324,6.05-0.349,9.077-0.347c33.584,0.021,67.167,0.146,100.751,0.091c13.893-0.022,15.123-1.395,15.198-15.228   c0.075-13.993,0.141-27.987,0.1-41.979c-0.025-8.646-1.538-10.167-10.229-10.213c-24.485-0.131-48.975-0.021-73.457-0.313   c-9.866-0.118-12.694-2.556-13.176-12.321c-0.599-12.088-0.584-24.254,0.024-36.344c0.495-9.82,4.075-12.693,14.555-12.833   c19.122-0.253,38.248-0.163,57.371-0.243c4.896-0.021,9.795-0.062,14.688-0.233c6.003-0.212,9.656-2.96,9.713-9.407   c0.15-16.552,0.364-33.104,0.472-49.656c0.038-5.811-3.628-7.52-8.743-7.49c-10.261,0.059-20.521,0.12-30.783,0.098   c-27.985-0.06-55.973-0.046-83.956-0.307c-10.131-0.095-12.825-2.607-13.278-12.909c-0.53-12.076-0.629-24.201-0.191-36.279   c0.326-8.969,3.773-12.114,12.739-12.242c20.52-0.292,41.043-0.245,61.566-0.265c34.05-0.032,68.1-0.023,102.15,0.011   c4.193,0.004,8.42-0.008,12.574,0.476c6.055,0.707,9.813,3.955,9.984,10.483c0.275,10.481,0.826,20.96,0.853,31.441   C828.318,235.458,828.257,274.64,828.254,313.821z"></path>
	<path fill="#FFFFFF" d="M479.155,102.177c-6.487,2.872-9.33,0.553-11.237-4.403c-4.265-11.088-4.54-11.206-16.114-11.215   c-7.917-0.007-15.858,0.44-23.744-0.051c-7.827-0.487-12.316,2.335-13.974,10.174c-1.167,5.523-4.311,8.697-11.148,5.677   c1.256-4.033,2.407-7.986,3.713-11.889c8.626-25.787,17.287-51.563,25.935-77.342c0.519-1.542,0.622-3.474,1.635-4.55   c2.19-2.327,4.706-5.555,7.357-5.832c1.876-0.195,5.243,3.476,6.149,6.053c7.639,21.701,14.883,43.542,22.202,65.355   C473.016,83.35,476,92.58,479.155,102.177z M461.097,77.148c-6.81-20.196-13.058-38.723-19.305-57.25   c-0.666,0.109-1.332,0.218-1.997,0.326c-5.68,16.955-11.405,33.896-16.991,50.881c-0.892,2.712-1.442,5.959,3.028,6.006   C436.735,77.226,447.641,77.148,461.097,77.148z"></path>
</g>
</svg>
