<?xml version="1.0" encoding="utf-8"?>
<!-- Generator: Adobe Illustrator 24.0.2, SVG Export Plug-In . SVG Version: 6.00 Build 0)  -->
<svg version="1.1" id="Capa_1" xmlns="http://www.w3.org/2000/svg" xmlns:xlink="http://www.w3.org/1999/xlink" x="0px" y="0px"
	 viewBox="0 0 632.93 129.03" style="enable-background:new 0 0 632.93 129.03;" xml:space="preserve">
<style type="text/css">
	.st0{fill:#FFFFFF;}
</style>
<path class="st0" d="M531.53,120.99c-1.76-15.9-8.36-105.45-33.89-65.11c-2.78,5.38-5.56,14.31-7.96,20.4
	c-0.25,0.11-1.52-0.27-2.54-0.58c-6.02,0.62,3.11,6.11-0.19,9.32c-2.79,8.37-5.54,16.96-7.7,25.57c5,8.94,5.78-1.64,8.79-12.57
	c1.88-5.25,2.74-10.1,4.65-14.57c-0.19-0.44,2.56,1.05,3.1,0.73c25.34-2.33,24.6-16.11,26.75,1.83
	C523.58,89.96,524.35,135.59,531.53,120.99z M518.11,72.92c-15.25,2.07-30.75,14.68-18.44-9.67c2.98-7.31,8.47-17.46,15.03-7.58
	C514.97,58.25,522.36,69.36,518.11,72.92z"/>
<path class="st0" d="M132.74,18.35c-7.35-17.59-36.45,5.42-32.63,19.57C109.84,57.77,138.13,33.95,132.74,18.35z M105.01,38.25
	c-6.53-4,10.7-21.52,12.63-18.83c0.68,2.96,9.41,1.83,5.43-1.15c0.57-0.35,2.08-0.59,2.7-0.74c0.97-0.85,3.31,0.16,2.86,1.59
	C130.73,31.02,116.2,46.75,105.01,38.25z"/>
<path class="st0" d="M338.45,81.4c-7.03-22.78-40-21.27-35.64-30.82c4.19-7.4,15.68-11.57,23.12-10.54c1.38,1.53,3.47,2.81,4,5.22
	c0.41,1.01,1.98,0.91,2.27-0.13c4.92-2.28-2.57-8.05-4.44-9.27c-4.86-3.27-10.72-1.17-15.46,1.66c-6.8,0.74-13.56,7.37-14.34,12.92
	c-3.72,19.96,30.87,4.19,36.35,39.13c-2.21,12.74-18.34,27.73-30.6,21.56c-1.22-2.49-0.28-4.37-3.14-4.49
	c-6.18,3.19,2.03,12.65,7.7,11.69C325.78,116.83,341.93,98.87,338.45,81.4z"/>
<path class="st0" d="M470.39,115.74c-4.15-12.24-1.22-25.13-0.86-37.9c-0.83-6.56,3.14-19.55-2.09-26.1
	c-6.32,9.59-1.52,26.18-2.89,37.88c0.48,9.79-4.7,20.11,3.99,28.21C470.02,118.75,470.72,117.01,470.39,115.74z"/>
<path class="st0" d="M490.57,41.44c0.25-8.65-25.28,1.58-31.27,2.02c-3.87,0.94-8.23,2-12.17,2.96c-2,0.51-0.05,3.15,0.28,4.2
	c7.45,1.01,16.6-3.3,24.65-4.15C477.62,44.55,485.85,45.11,490.57,41.44z"/>
<path class="st0" d="M111.02,53.34c0.09-1.62-3.62-1.76-3.67-0.17c0.86,1.11-4.24,72.72-1.56,72.84
	C115.85,103.83,109.04,77.17,111.02,53.34z"/>
<path class="st0" d="M542.77,115.17c-0.25-0.98-0.98-1.69-1.62-2.31c-0.23-0.22-0.44-0.43-0.61-0.63c-0.21-0.25-0.52-0.4-0.85-0.42
	c-0.33-0.02-0.65,0.09-0.89,0.31c-0.2,0.18-0.46,0.37-0.73,0.57c-0.83,0.61-1.77,1.3-1.92,2.39c-0.14,1.07,0.63,1.85,1.53,2.76
	c0.35,0.36,0.71,0.72,1.06,1.13c0.23,0.28,0.58,0.44,0.94,0.44c0.01,0,0.02,0,0.03,0c0.37-0.01,0.72-0.19,0.94-0.49
	c0.3-0.41,0.63-0.79,0.93-1.12C542.35,116.92,543.02,116.16,542.77,115.17L542.77,115.17z"/>
<path class="st0" d="M386.19,108.52c-2.87-2.16-4.84,2.72-7.11,3.69c-7.36,2.37-16.49,9.49-23.92,4.31
	c-15.79-7.19,2.66-106.54,15.86-61.6c0.62,6.64-3.91,19.08,3.17,12.82c4.78-9.49-2.44-39.91-17.58-25.36
	c-11.14,14.1-24.68,84.32,6.01,80.94C368.4,122.55,389.2,115.75,386.19,108.52z"/>
<path class="st0" d="M287.24,67.88c5.46-0.94,4.68-7.89-0.77-4.59c-2.88-8-4.26-28.85-15.2-26.54
	c-13.17,2.32-5.14,36.66-19.04,33.25c-6.81,3.25,2.34,5.43,5.77,5.17c-0.44,5.82-1.88,12.1-2.58,17.29
	c0.16,4.66-5.88,18.74-1.41,20.76c5.54-0.27,6.72-32.15,9.2-38.69c5.67-2.12,12.9-2.52,19.13-3.64c1.98,15.19,4.07,35.44,5.57,51.85
	C298.5,136.34,288.35,84.95,287.24,67.88z M280.86,65.57c-2.84,0.66-17.59,4.95-16.17,1.68c2.31-5.22,5.03-37.49,12.14-20.17
	C277.6,51.56,283.85,62.85,280.86,65.57z"/>
<path class="st0" d="M441.67,57.34c-5.98-13.3-35.56-19.54-34.27-0.14l-0.64,1.53c1.6-1.37-0.55,0.32-0.4,0.27
	c3.36-0.62-4.3,2.83-1.94,4.57c8.91,6.67,4.69-29.21,31.4-6.66c30.41,69.67-81.52,80.98-30.26-1.48
	c-15.72-6.67-25.53,54.49-7.73,62.34C428.93,133.76,459.2,83.15,441.67,57.34z M404.81,57.09c-0.02,0.01-0.03,0.01-0.03,0.01
	C404.79,57.1,404.8,57.1,404.81,57.09z"/>
<path class="st0" d="M579.61,112.92c-0.28,0.15-0.56,0.31-0.83,0.46c-1.93,1.08-3.75,2.1-5.64,2.43
	c-9.37,1.66-13.65-5.08-15.6-11.03c-3.59-10.98-3.75-22.97-0.5-37.74l0.13-0.58c1.13-5.17,2.3-10.51,6.9-13.29
	c1.86-1.12,4.91-1.58,8.21-1.23c0.32,0.49,0.75,1.97,1,2.79c0.23,0.78,0.47,1.59,0.73,2.26c0.14,0.35,0.25,0.73,0.41,1.26
	c0.09,0.31,0.2,0.66,0.33,1.09c0.14,0.46,0.54,0.79,1.01,0.85c0.47,0.06,0.94-0.16,1.19-0.56c0.18-0.29,0.34-0.52,0.47-0.7
	c0.3-0.42,0.65-0.9,0.5-1.57c-0.19-0.85-0.33-1.75-0.47-2.69c-0.36-2.39-0.73-4.87-2.1-6.78c-1.18-1.64-3.89-1.97-5.4-2.03
	c-2.82-0.1-6.53,0.6-8,2.37c-0.49,0.58-1,1.19-1.5,1.77c-2.72,3.19-5.54,6.48-6.7,10.34c-2.48,8.25-3.85,15.79-4.19,23.04
	c-0.39,8.26,0.57,15.95,2.91,23.49c2.14,6.89,7.82,12.74,14.13,14.56c1.25,0.36,2.72,0.62,4.34,0.62c3.24,0,7.1-1.05,11.08-4.46
	c0.65-0.56,1.34-1.01,1.95-1.32C582.36,115.48,580.55,114.33,579.61,112.92z"/>
<path class="st0" d="M631.4,78.13c-1.77-5.52-4.6-10.08-7.56-12.2l0,0c-3.1-2.22-6.51-4.22-10.12-5.94
	c-3.18-1.52-7.17-1.8-10.95-0.78c-3.79,1.03-7.06,3.28-8.97,6.19c-0.93,1.42-1.66,2.98-2.36,4.49c-0.98,2.11-1.9,4.1-3.3,5.6
	c-3.81,4.07-5.88,8.92-6.51,15.26c-0.72,7.11-0.58,15.13,5.32,21.57c0-0.08,0-0.16,0-0.24c0,0,3.16,4.16,8.85,5.55
	c1.3,0.31,2.6,0.46,3.89,0.46c3.34,0,6.66-1.02,9.93-3.07c4.65-2.91,9.15-6.52,13.37-10.73c4.4-4.39,7.26-8.21,8.98-12.02
	C633.43,89.07,633.21,83.78,631.4,78.13z M622.24,98.22c-5.57,4.92-11.07,9.6-17.25,12.71c-2.94,1.48-6.31,1.54-9.5,0.17
	c-3.98-1.71-7.18-5.44-8.54-9.97c-1.38-4.58-0.94-8.9,0.48-13.55c0.16,0.39,0.52,0.68,0.95,0.74c0.47,0.07,0.94-0.15,1.2-0.55
	c0.12-0.19,0.31-0.41,0.5-0.65c0.59-0.72,1.26-1.54,1.11-2.55c-0.51-3.49,1.2-5.81,3.93-8.21c0.7-0.62,1.07-1.46,1.39-2.21
	c0.13-0.29,0.25-0.57,0.38-0.81c0.16-0.29,0.19-0.64,0.08-0.96c-0.1-0.32-0.33-0.58-0.64-0.72l-0.83-0.39
	c0.35-0.4,0.69-0.81,1.03-1.21c1.41-1.68,2.73-3.26,4.33-4.03c4.32-2.09,8.73-2.44,12.77-1c4.2,1.5,7.71,4.9,9.89,9.6
	c1.68,3.62,3.42,7.37,4.4,11.21C629.28,91.12,625.81,95.06,622.24,98.22z"/>
<g>
	<path class="st0" d="M85.2,1.68c-7.14-2.69-12.71,19.94-16.79,25c-6.94,11.11-11.85,23.3-18.95,34.31
		C38.98,45.29,36.86,26.35,30.11,9.6c-14.17,2.46-0.39,92.83-16.44,112.66c-1.61,1.84,1.3,4.12,2.44,1.71
		c13.49-15.78,14.15-47.6,11.35-71.16c0.59-9.79,1.23-22.28,1.98-30.09c5.81,13.98,8.03,33.44,20.04,43.4
		c4.35,0.47,5.83-5.66,7.49-8.66c1-2.04,3.87-4.26,3.15-6.73C66.84,39,73.65,26.75,79.84,14.62c0.33,26.87-2.64,83.83,0.41,113.76
		c4.39,2.91,4.61-4.67,4.12-7.45C83.91,86.24,86.69,29.35,85.2,1.68z"/>
	<path class="st0" d="M59.96,116.34l-0.61-0.83l-0.74,0.73c-0.05,0.05-0.11,0.1-0.16,0.14c-0.19,0.16-0.42,0.36-0.59,0.65
		c-0.14,0.24-0.26,0.51-0.37,0.78c-0.13,0.31-0.25,0.6-0.4,0.76c-0.57,0.59-1.52,0.96-2.55,0.97c-1.01,0-1.94-0.3-2.51-0.85
		c-0.25-0.25-0.48-0.77-0.57-1.31c-0.07-0.44-0.06-0.92-0.04-1.43c0.01-0.37,0.02-0.75,0-1.12c-0.01-0.21,0-0.28,0.26-0.46
		c2.19-1.51,3.87-3.38,5-5.55c0.78-1.51,0.88-3.05,0.3-4.58c-0.66-1.73-1.96-2.74-3.66-2.86c-1.4-0.1-2.62,0.5-3.49,1.69
		c-1.09-1.42-2.43-1.67-3.42-1.62c-1.68,0.09-2.93,1.03-3.64,2.71c-0.71,1.69-0.6,3.35,0.3,4.68c0.17,0.24,0.33,0.49,0.5,0.75
		c0.87,1.32,1.77,2.69,3.09,3.55c1.71,1.11,1.95,2.43,1.79,4.33c-0.06,0.7-0.27,1.11-0.71,1.4c-1.27,0.84-2.6,0.96-4.07,0.38
		c-0.83-0.33-1.3-0.81-1.45-1.48l-0.03-0.17c-0.07-0.37-0.17-0.92-0.68-1.25c-0.22-0.15-0.6-0.29-1.16-0.16
		c-0.55,0.13-0.84,0.44-0.98,0.67c-0.34,0.56-0.19,1.17-0.06,1.67c0.48,2,2.54,3.67,4.88,3.98c0.41,0.05,0.81,0.08,1.2,0.08
		c1.77,0,3.31-0.56,4.6-1.66c2.27,1.78,4.8,2.1,7.54,0.95c1.93-0.81,3.28-2.68,3.14-4.33c-0.04-0.49-0.35-0.82-0.56-1.04
		C60.04,116.44,59.99,116.39,59.96,116.34z"/>
</g>
<path class="st0" d="M33.73,108.37c-0.42,0-0.83-0.13-1.19-0.41c-9.92-7.78-30.04-3.84-30.24-3.8c-1.04,0.22-2.06-0.46-2.27-1.5
	s0.46-2.05,1.5-2.27c0.89-0.18,22.05-4.33,33.37,4.55c0.84,0.66,0.98,1.86,0.33,2.7C34.86,108.12,34.3,108.37,33.73,108.37z"/>
<path class="st0" d="M3.57,127.22c-0.59,0-1.17-0.27-1.55-0.78c-0.63-0.85-0.45-2.06,0.4-2.69c0.82-0.6,20.15-14.77,32.7-11.77
	c1.03,0.25,1.67,1.29,1.42,2.32s-1.28,1.67-2.32,1.42c-10.81-2.58-29.34,10.99-29.52,11.12C4.37,127.1,3.97,127.22,3.57,127.22z"/>
<path class="st0" d="M67.96,109.07c-0.57,0-1.14-0.25-1.51-0.74c-0.66-0.83-0.51-2.04,0.33-2.7c11.32-8.88,32.48-4.73,33.37-4.55
	c1.04,0.21,1.71,1.22,1.5,2.27c-0.21,1.04-1.22,1.72-2.27,1.5c-0.2-0.04-20.32-3.98-30.24,3.8
	C68.8,108.94,68.38,109.07,67.96,109.07z"/>
<path class="st0" d="M98.11,127.93c-0.4,0-0.8-0.12-1.14-0.38c-0.19-0.14-18.71-13.71-29.52-11.12c-1.03,0.25-2.07-0.39-2.32-1.42
	s0.39-2.07,1.42-2.32c12.55-3,31.89,11.17,32.7,11.77c0.85,0.63,1.03,1.84,0.4,2.69C99.28,127.66,98.7,127.93,98.11,127.93z"/>
<path class="st0" d="M241.47,1.68c-7.14-2.69-12.71,19.94-16.79,25c-6.94,11.11-11.85,23.3-18.95,34.31
	c-10.48-15.7-12.6-34.64-19.35-51.39c-14.17,2.46-0.39,92.83-16.44,112.66c-1.61,1.84,1.3,4.12,2.44,1.71
	c13.49-15.78,14.15-47.6,11.35-71.16c0.59-9.79,1.23-22.28,1.98-30.09c5.81,13.98,8.03,33.44,20.04,43.4
	c4.35,0.47,5.83-5.66,7.49-8.66c1-2.04,3.87-4.26,3.15-6.73C223.1,39,229.91,26.75,236.1,14.62c0.33,26.87-2.64,83.83,0.41,113.76
	c4.39,2.91,4.61-4.67,4.12-7.45C240.18,86.24,242.95,29.35,241.47,1.68z"/>
<path class="st0" d="M221.21,110.03c-0.55,0.37-1.07,0.98-1.67,1.06c-0.83,0.11-1.39-0.51-1.38-1.41c0.01-0.91,0.6-1.5,1.43-1.37
	c0.59,0.1,1.09,0.72,1.63,1.12C221.22,109.62,221.21,109.82,221.21,110.03z"/>
<path class="st0" d="M193.9,103.05c0.54-0.39,1.04-1.03,1.62-1.13c0.83-0.14,1.42,0.47,1.44,1.37s-0.57,1.53-1.39,1.43
	c-0.59-0.07-1.11-0.69-1.66-1.07C193.91,103.46,193.91,103.25,193.9,103.05z"/>
<path class="st0" d="M219.32,101.66c0.38,0.55,0.99,1.06,1.1,1.66c0.16,0.86-0.52,1.43-1.36,1.44c-0.85,0.01-1.53-0.53-1.39-1.41
	c0.1-0.6,0.68-1.13,1.05-1.68C218.92,101.66,219.12,101.66,219.32,101.66z"/>
<path class="st0" d="M196.65,109.99c-0.55,0.38-1.06,0.99-1.66,1.09c-0.85,0.14-1.41-0.52-1.41-1.39c-0.01-0.88,0.57-1.52,1.41-1.39
	c0.6,0.09,1.11,0.71,1.66,1.09C196.65,109.6,196.65,109.8,196.65,109.99z"/>
<path class="st0" d="M215.29,109.06c-0.56,0.37-1.09,0.96-1.69,1.05c-0.86,0.12-1.41-0.55-1.39-1.41c0.01-0.87,0.59-1.51,1.45-1.34
	c0.6,0.12,1.1,0.72,1.65,1.1C215.3,108.66,215.3,108.86,215.29,109.06z"/>
<path class="st0" d="M200.49,107.27c1.31,0.08,1.85,0.54,1.85,1.44c0.01,0.88-0.51,1.43-1.39,1.45c-0.88,0.01-1.52-0.55-1.4-1.39
	C199.64,108.17,200.24,107.65,200.49,107.27z"/>
<g>
	<path class="st0" d="M214.64,97.42c-0.39,1.05-0.94,1.34-1.87,0.99c-0.4-0.15-0.63-0.44-0.76-0.86c-0.13-0.44-0.27-0.89-0.51-1.27
		c-0.48-0.78-0.96-0.02-1.6,0.63c-0.19,0.2-0.37,0.42-0.5,0.66c-0.63,1.16,0.01,2.3,1.4,2.42c0.56,0.05,1.13-0.06,1.69-0.11
		c0.15-0.01,0.31-0.05,0.46-0.05c0.83,0,1.18,0.43,1.03,1.25c-0.21,1.22-1.71,3.07-3.4,3.17c-0.37,0.02-0.73,0.1-1.09,0.17
		c-0.61,0.13-1.03,0.51-1.38,1.01c-0.17,0.24-0.38,0.45-0.58,0.67c-0.06-0.02-0.11-0.04-0.17-0.05c-0.03-0.23-0.08-0.45-0.08-0.68
		c0.02-1.57,0.05-3.14,0.07-4.71c0-0.25-0.07-0.5-0.11-0.75c-0.05,0-0.11-0.01-0.16-0.01c-0.04,0.24-0.11,0.48-0.11,0.72
		c0.01,1.4,0.03,2.8,0.05,4.2c0,0.4,0,0.8,0,1.21c-0.06,0.02-0.12,0.04-0.18,0.07c-0.16-0.14-0.37-0.26-0.47-0.44
		c-0.55-0.98-1.44-1.3-2.49-1.41c-1.62-0.16-3.07-1.43-3.49-2.99c-0.27-0.99,0.19-1.52,1.22-1.41c0.58,0.06,1.16,0.17,1.74,0.15
		c0.38-0.01,0.79-0.15,1.13-0.34c0.54-0.29,0.77-0.78,0.67-1.4c-0.1-0.66-0.44-1.18-0.98-1.56c-0.52-0.36-0.8-0.87-1.17-0.36
		c-0.28,0.39-0.48,0.86-0.62,1.32c-0.25,0.83-0.88,1.27-1.74,1.12c-0.46-0.08-0.8-0.36-0.82-0.81c-0.03-0.54-0.01-1.12,0.14-1.63
		c0.43-1.44,0.91-2.13,1.93-3.22c0.94-1,2.14-1.52,3.49-1.57c1.27-0.05,2.55-0.04,3.82,0.04c1.64,0.11,2.89,0.96,3.84,2.27
		c0.89,1.21,1.3,1.7,1.56,3.2C214.64,97.18,214.64,97.3,214.64,97.42z"/>
</g>
<path class="st0" d="M208.29,105.07c0.07,1.85,0.07,3.71,0.01,5.56c-0.05,1.66,0.61,2.93,1.83,3.97c3.52,2.99,9.91,2.84,13.11-0.46
	c0.85-0.87,1.31-2.19,1.72-3.38c0.28-0.81,0.49-1.49,1.45-1.35c0.96,0.14,1.13,0.89,1.03,1.72c-0.28,2.41-1.55,4.23-3.45,5.65
	c-1.83,1.37-3.9,2.15-6.18,2.29c-0.78,0.05-1.25,0.28-1.67,1.02c-2,3.52-5.01,5.54-9.12,5.58c-4.16,0.04-7.22-1.96-9.27-5.52
	c-0.36-0.62-0.73-0.86-1.45-0.93c-3.27-0.31-6.19-1.49-8.11-4.25c-0.78-1.12-1.13-2.59-1.45-3.95c-0.09-0.35,0.57-1.2,0.99-1.28
	c0.39-0.08,1.27,0.52,1.32,0.9c0.51,3.72,3.1,5.26,6.32,5.96c2.76,0.6,5.46,0.18,7.89-1.37c1.71-1.09,2.76-2.58,2.58-4.72
	c-0.01-0.13,0-0.25,0-0.38c0-1.81,0.27-3.68-0.08-5.42 M213.93,119.09c-1.33-0.54-2.6-0.91-3.71-1.54c-1.14-0.65-2.13-1.56-3.25-2.4
	c-1.73,2.19-4.15,3.34-7.01,3.95c1.59,2.61,3.81,4.06,6.74,4.14C209.88,123.32,212.24,121.8,213.93,119.09z"/>
</svg>
