<?xml version="1.0" encoding="utf-8"?>
<!-- Generator: Adobe Illustrator 24.0.2, SVG Export Plug-In . SVG Version: 6.00 Build 0)  -->
<svg version="1.1" id="Capa_1" xmlns="http://www.w3.org/2000/svg" xmlns:xlink="http://www.w3.org/1999/xlink" x="0px" y="0px"
	 viewBox="0 0 884.84 486.25" style="enable-background:new 0 0 884.84 486.25;" xml:space="preserve">
<style type="text/css">
	.st0{fill:#FFFFFF;}
</style>
<g>
	<path class="st0" d="M590.4,115.55c0.15,5.31-2.7,8.69-8.07,9.47c-2.55,3.88-4.91,7.46-7.67,11.66c-0.42,2.12,0.48,5.43-2.31,7.6
		c-4.31,3.35-8.25,7.31-14.1,8c-7.05,0.83-13.95-0.22-20.81-1.55c-13.09-2.56-24.82-8.4-36.15-15.21
		c-10.18-6.12-19.29-13.61-28.08-21.54c-1.72-1.55-3.47-3.06-5.79-5.12c-1.62,3.51-3.03,6.56-4.46,9.66
		c2.74,5.54,2.64,10.74-0.91,15.72c-0.55,0.77-0.72,1.85-0.94,2.81c-1.57,6.9-5.64,12.14-11.53,15.65
		c-7.41,4.42-14.95,8.77-22.83,12.24c-10.19,4.49-20.73,8.47-31.95,9.41c-6.42,0.54-12.97,0.19-19.41-0.36
		c-17.82-1.51-35.15-5.38-51.93-11.61c-7.89-2.93-13.55-8.15-16.93-15.93c-0.9-2.07-2.31-4.03-3.86-5.7
		c-3.04-3.27-5.16-6.82-5.78-11.34c-0.28-2.05-1.15-4.17-2.27-5.94c-1.87-2.93-2.24-5.86-1.04-9.02c2.22-5.84,2.81-11.93,2.91-18.11
		c0.04-2.86-0.14-5.53-1.65-8.16c-1.97-3.42-1.09-7.02,1.18-9.84c3.59-4.46,6.04-9.47,8.53-14.55c2.62-5.34,7.07-9.2,12-12.45
		c12.92-8.54,27.29-13.15,42.53-14.73c15.77-1.63,31.61-1.7,47.21,1.76c7.61,1.69,15.08,4.02,23.09,6.19
		c1.73-2.91,3.78-6.07,5.53-9.4c1.65-3.14,4.09-5.17,7.31-6.42c0.31-0.12,0.67-0.18,0.92-0.38c5.06-4.17,10.21-8.25,15.09-12.63
		c1.09-0.98,1.5-2.96,1.77-4.56c0.69-4.17,3.41-5.89,7.2-6.41c1.64-0.23,3.36-0.05,4.97-0.38c2.08-0.43,4.37-0.75,6.07-1.87
		c6.52-4.31,13.49-4.56,20.61-2.51c13.5,3.87,26.31,9.39,38.1,17.12c10.32,6.76,20.23,14.05,29.31,22.44
		c14.13,13.06,23.65,29.12,30.15,47.03c2.82,7.77,3.18,15.67-1.46,23.06C593.79,111.47,592.31,113.08,590.4,115.55z M418.39,118.26
		c-6.28,0.05-12.56,0.11-18.24,0.16c-1.66,1.68-2.73,2.76-4.15,4.19c-0.85-1.53-1.36-2.47-2.09-3.8c-3.46,0-7.15,0.36-10.74-0.08
		c-6.13-0.75-12.2-1.3-18.38-0.74c-2.78,0.25-5.74,0.2-8.42-0.49c-8.37-2.13-16.65-4.6-24.93-7.03c-1.41-0.41-2.8-1.14-3.98-2.01
		c-3.12-2.29-6.38-4.06-9.89-3.71c-1.42-2.45-2.16-5.12-3.9-6.44c-4.14-3.14-6.84-7.17-9.18-11.62c-0.46-0.87-1.36-1.5-2.32-2.51
		c-1.52,3.75,2.42,5.42,2.05,8.38c-0.89,0.21-1.78,0.42-3.16,0.74c2.63,7.71,8.85,11.6,14.04,15.74c3.27,0.36,5.91,0.65,9.57,1.05
		c0.84,1.05,1.99,2.71,3.38,4.13c1.14,1.16,2.55,2.08,3.9,3.02c2,1.41,4.23,2.55,6.03,4.17c2.77,2.5,5.85,3.76,9.54,3.44
		c2.31-0.2,4.6-0.6,7.09-0.93c-0.4-1.23-0.74-2.23-1.03-3.12c1.44-1.7,2.65-1.67,3.78-0.24c0,0.99,0,1.87,0,2.93
		c4.06,0.29,7.85,0.56,11.47,0.82c1.26,0.99,2.24,1.9,3.35,2.61c5.47,3.53,14.66,2.63,19.35-1.84l-0.17,0.16
		c1.93-0.21,4.04,0.02,5.74-0.72c4.15-1.79,8.34-1.67,12.71-1.48c4.96,0.22,9.96,0.02,14.91-0.4c2.18-0.19,4.28-1.4,6.28-2.1
		c0.59-3.11,0.71-6.11,4.88-5.66c0.96,0.76,2.08,1.65,3.09,2.45c8.49-1.92,16.33-7.4,16.96-11.67c-1.86,0.82-3.75,1.65-5.64,2.48
		l0.09,0.1c0.59-1.85,1.19-3.71,1.78-5.56c-0.3-0.23-0.61-0.46-0.91-0.68c-6.3,5.61-13.19,10.13-21.24,11.65
		c-1.88,5.47-1.88,5.47-5.89,5.99c0.35-1.26,0.66-2.39,1.08-3.92c-1.45,0.28-2.52,0.48-3.48,0.67c-0.35,1.4-0.63,2.54-1.09,4.4
		c-1.11-1.27-1.71-1.95-2.31-2.63c0.05-0.08,0.11-0.16,0.16-0.24C418.43,118.04,418.41,118.15,418.39,118.26z M447.14,39.46
		c-0.29-1.95-0.58-3.9-3.25-4.48c-2.26,2.95-2.03,6.11-0.95,9.22c0.42,1.21,1.35,2.82,3.3,1.61c-1.73-5.05-1.73-5.05-1.03-7.56
		c0.73,0.39,1.4,0.74,2.06,1.09c0.4,2.9,0.79,5.81,1.16,8.5c-2.95,4.15-2.7,4.51,0.17,8.31c2.66,3.52,5.6,6.47,9.63,8.37
		c0.91,0.43,1.45,1.67,2.22,2.61c-0.96,1.16-1.76,2.12-3.01,3.63c1.94,1.58,3.63,2.96,5.99,4.88c1.57,7.63,8.71,10.52,15.42,14.01
		c0.37-1.16,0.71-2.22,1.05-3.26c5.66,0.94,7.49,3.2,6.85,8.25c-0.55,4.37,2.91,8.61,7.35,9.64c3.64,0.85,7.19,2.13,10.69,3.47
		c1.71,0.66,2.9,2.07,2.64,4.34c-3.66,0.86-3.88-3.35-6.61-4.07c-0.35,0.22-0.87,0.53-1.36,0.83c1.84,4.24,18.44,19.02,25.15,22.44
		c2.13-0.13,4.51,0.03,6.75-0.46c6.31-1.4,10.4,1.71,13.85,6.35c-2.1,0.38-3.73-0.25-5.37-1.74c-2.86-2.59-3.78-2.51-7.77-0.21
		c4.35,1.44,8.2,2.71,12.32,4.08c0.34-1.1,0.52-1.68,0.7-2.25c2.28,0,4.55,0,6.8,0c2.84,5.1,6.29,7.15,10.64,6.35
		c2.83-0.52,3.63-1.51,4.11-5.32c-0.6-0.36-1.23-0.92-1.96-1.17c-5.8-2-11.63-3.94-17.45-5.91c-3.14-1.06-6.39-1.89-9.4-3.23
		c-14.1-6.27-25.33-16.27-35.11-27.94c-3.38-4.03-6.96-7.4-11.74-9.72c-6.73-3.27-11.92-8.54-15.86-14.78
		c-1.98-3.14-4.25-5.85-6.79-8.48c-2.3-2.38-5.37-4.6-6.42-7.5c-2.22-6.17-5.77-11.08-10.53-15.36c-1.09-0.98-1.77-2.4-2.74-3.54
		C448.3,39.99,447.66,39.77,447.14,39.46z M531.21,93.16l-0.13-0.19c1.2,5.82,4.71,9.19,10.54,10.52
		c7.37,1.69,13.87,4.83,17.26,12.83c4.68,0.64,9.37,1.29,14.52,2c2.65,2.59,4.26,2.91,7.07,0.87c-1.1-0.93-2.15-1.81-3.49-2.93
		c2.26-0.9,4.08-1.62,6.98-2.77c-1.97-0.75-2.68-1.15-3.44-1.29c-12.34-2.17-22.71-8.26-32.13-16.2c-8.14-6.86-16-14.07-24.44-20.53
		c-9.79-7.49-19.1-15.47-27.9-24.08c-11.62-11.37-19.56-24.91-24.43-40.78c-0.81,0.13-1.85,0.31-2.85,0.47
		c-0.27,1.54-0.5,2.8-0.69,3.88c-1.47,0.66-2.67,1.2-3.77,1.7c-1.84,3.64-1.67,6.92,1.07,9.81c2.47,2.62,3.82,5.75,4.91,9.13
		c0.53,1.66,1.63,3.26,2.83,4.56c2.13,2.32,4.48,4.45,6.83,6.55c1.03,0.92,2.3,1.56,4.18,2.81c-0.85-2.89-0.53-4.49,2.29-5.23
		c0.66,1.37,1.32,2.74,1.98,4.11c0.25,0.51,0.51,1.01,0.76,1.52c-1.38,0.31-2.77,0.63-3.92,0.89c6.37,10.12,7.32,11.13,13.77,14.69
		c1.78,4.58,4.87,8.33,9.03,11.36c1.53,1.11,2.51,3.02,3.66,4.61c2.06,2.84,4.13,5.55,7.68,6.82
		C523.38,89.72,527.27,91.52,531.21,93.16z M428.82,51.86c-1.65-0.69-3.24-1.64-4.97-2.04c-9.21-2.14-18.38-4.68-27.71-6.08
		c-21.07-3.16-41.8-1.59-61.77,6.41c-7.91,3.17-15.55,6.83-21.65,13c-6.87,6.96-7.61,15.63-1.77,23.46c2.16,2.9,4.73,5.62,7.52,7.92
		c12.47,10.26,26.98,15.43,42.99,16.6c2.98,0.22,5.96,0.58,8.95,0.69c11.62,0.42,23.22,1.75,34.86,0.47c3.8-0.42,7.6-0.81,11.4-1.21
		c10.6-1.13,20.4-4.54,29.29-10.43c2.59-1.72,5.26-3.56,6.24-7.43c-1.33-1.58-2.77-3.37-4.29-5.08
		C438.66,77.67,430.84,66.45,428.82,51.86z M489.69,5.78c-0.39,0.04-1.05,0.1-1.72,0.15c-7.73,0.65-9.66,3.22-7.93,10.72
		c1.78,7.74,5.26,14.67,10.22,20.86c7.03,8.77,15.57,15.91,24.58,22.5c13.97,10.23,27.39,21.12,39.89,33.12
		c7.11,6.83,15.57,11.25,24.9,14.13c1.27,0.39,2.58,0.7,3.9,0.83c3.69,0.36,6.27-1,7.34-4.57c0.79-2.63,1.09-5.56,0.87-8.3
		c-0.22-2.77-1.04-5.58-2.1-8.17c-8.06-19.72-19.32-37.11-36.67-50.05c-13.47-10.05-26.91-20.13-42.79-26.28
		C503.65,8.21,497.08,5.94,489.69,5.78z M458.7,24.01c-7.16,2.15-8.88,6.93-5.04,11.9c0.61,0.79,1.27,1.57,2.04,2.18
		c4.88,3.81,7.76,8.95,10.2,14.51c1.03,2.35,2.58,4.79,4.56,6.33c5.05,3.91,8.65,8.6,10.52,14.73c1.15,3.76,3.59,6.53,6.91,8.82
		c5.04,3.47,9.9,7.26,14.55,11.26c4.53,3.9,8.62,8.3,13.04,12.34c8.41,7.69,17.47,14.22,28.72,17.35c5.9,1.64,11.55,4.17,17.35,6.2
		c2.03,0.71,4.13,1.3,6.25,1.6c3.29,0.48,5.38-1.07,7.09-5.1c-2.41-1.39-5.1-0.98-7.66-1.13c-7.18-0.43-13.29-2.79-17.11-9.37
		c-0.66-1.14-1.47-2.19-2.47-3.65c-2.42-0.71-5.07-1.78-7.82-2.21c-5.26-0.82-8.87-3.72-11.02-8.36
		c-2.39-5.17-6.22-8.38-11.54-10.27c-7.25-2.58-12.87-7.46-17.66-13.38c-2.71-3.35-5.55-6.6-8.29-9.94
		c-7.35-8.96-14.71-17.92-21.98-26.95c-1.13-1.4-1.75-3.21-2.73-4.75C464.03,32.08,461.38,28.1,458.7,24.01z M304.33,108.45
		c-0.84,4.97,0.9,8.46,3.45,11.2c3.25,3.49,6.79,6.98,10.85,9.41c15.16,9.1,31.94,12.97,49.45,13.99
		c14.55,0.84,28.87-1.58,43.27-3.04c11.8-1.2,22.07-5.97,31.97-11.84c3.68-2.18,6.93-5.14,10.23-7.91c1.3-1.09,2.73-2.35,2.71-4.99
		c-1.82,0.9-3.33,1.47-4.64,2.34c-4.93,3.28-10.32,5.28-16.15,6.24c-1.3,0.21-2.82,0.34-3.79,1.09c-6.19,4.75-13.24,4.77-20.49,4.19
		c-4.49-0.36-8.92-0.1-13.33,1.26c-5.88,1.81-11.86,3.64-18.14,2.59c-4.75-0.79-9.52-1.67-14.14-3c-5.53-1.58-10.9-2.6-16.66-1.05
		c-3.95,1.06-7.9,0.37-11.54-1.79c-3.42-2.02-6.95-3.86-11.06-6.14c-1.91-3.14-5.29-5.04-9.71-5.84c-2.48-0.45-4.75-2.18-7.05-3.44
		C307.91,110.83,306.36,109.73,304.33,108.45z M436.65,44.16c-2.58,2.04-2.47,4.32-2.06,6.38c0.64,3.24,1.41,6.52,2.65,9.56
		c2.96,7.29,7.21,13.87,12.21,19.9c16.45,19.82,35.26,37.1,56.8,51.25c10.64,6.99,22.44,11.51,34.85,14.35
		c1.84,0.42,3.77,0.43,5.65,0.63c-0.68-1.43-1.58-2.08-2.58-2.48c-4.16-1.67-8.34-3.3-12.53-4.88c-5.03-1.9-9.6-4.43-13.41-8.36
		c-2.06-2.13-4.37-4.22-6.96-5.6c-9.07-4.86-15.82-12.6-23.9-18.69c-0.52-0.39-1-0.9-1.38-1.43c-5.12-7.21-11.45-12.78-19.99-15.77
		c-1.94-0.68-4.18-2.74-4.78-4.63c-2.1-6.67-7.31-11.06-11.33-16.24c-5.03-6.48-9.91-12.88-11.89-21.02
		C437.8,46.21,437.22,45.37,436.65,44.16z M423.39,145.66c-0.19-0.44-0.38-0.88-0.58-1.31c-10.15,1.52-20.34,2.82-30.44,4.65
		c-6.63,1.2-13.21,1.57-19.85,0.69c-8.56-1.13-17.15-2.16-25.63-3.72c-11.67-2.15-22.83-5.78-32.45-13.18
		c-4.06-3.13-8.32-6-12.38-8.9c0.81,10.83,1.44,12.2,7.48,15.49c5.2-1.45,9.13,1.57,12.5,5.25c1.74-0.89,3.03-1.55,4.21-2.16
		c2.47,0.79,4.95,1.06,6.17,3.37c-1.89,2.41-4.46-1.4-6.11,1.56c2.22,2.78,5.53,2.83,8.5,2.91c3.16,0.08,6.35-0.73,9.62-1.16
		c1.02,1.64,1.98,3.17,3.02,4.84c5.62,2.53,11.74,3.61,17.81,4c9.11,0.59,18.27,0.37,27.42,0.38c1.75,0,3.51-0.54,4.97-0.78
		c3.09-8.12,5.92-9.59,13.94-7.88c1.91,0.41,3.91,0.41,5.74,0.58C419.54,148.61,421.47,147.14,423.39,145.66z M449.4,144.76
		c-4.05,1.8-8.06,3.73-12.17,5.38c-4.46,1.79-9,3.42-13.55,4.97c-2.98,1.01-6,2-9.08,2.59c-11.1,2.14-22.26,3.84-33.58,4.3
		c-1.78,0.07-3.61,0.55-5.3,1.17c-4.24,1.57-8.36,1.6-12.64,0.05c-4.99-1.81-9.99-3.74-15.14-4.92c-9.91-2.26-19.56-5.2-28.94-9.06
		c-1.01-0.41-2.12-0.57-3.18-0.85c-0.21,0.28-0.42,0.56-0.63,0.85c1.02,1.15,1.84,2.58,3.08,3.38c2.91,1.88,5.84,4.01,9.08,5.06
		c8.2,2.67,16.47,5.36,24.91,6.99c10.08,1.95,20.37,3.85,30.58,3.88c18.54,0.07,36.1-5.18,52.65-13.45
		C440.62,152.54,445.69,149.56,449.4,144.76z M447.76,136c-5.5,1.49-11.78,0.86-16.14,6.21c1.79,0.79,3.12,1.37,4.85,2.13
		C439.89,141.18,444.68,139.85,447.76,136z M435.23,146.77c-5.81-0.34-8.63,0.91-10.33,4.41
		C428.85,151.09,431.67,148.98,435.23,146.77z M400.81,155.92c0.1,0.41,0.19,0.81,0.29,1.22c2.14-0.38,4.28-0.76,7.4-1.32
		C405.09,154.27,402.8,153.62,400.81,155.92z M452.68,130.23c0.33,0.29,0.66,0.57,0.99,0.86c2.09-1.18,4.74-1.9,4.33-6.24
		C455.88,127,454.28,128.62,452.68,130.23z"/>
	<path class="st0" d="M248.42,210.07c-20.42,18.22-38.52,38.65-56.26,59.41c-17.2,20.12-34.31,40.3-51.55,60.39
		c-3.14,3.66-6.54,7.12-10.1,10.36c-2.05,1.87-4.5,3.52-7.06,4.56c-4.81,1.96-8.93-0.23-9.64-5.35c-0.49-3.54-0.29-7.35,0.45-10.86
		c2.57-12.04,8.33-22.78,14.55-33.24c13.75-23.13,30.41-44.09,48.36-64.06c5.89-6.56,12.02-12.91,18.03-19.36
		c1.2-1.29,2.35-2.62,3.07-4.43c-1.86,1.3-3.76,2.54-5.57,3.91c-23.8,18.12-45,39-65.08,61.09c-13.55,14.9-27.05,29.84-40.88,44.48
		c-7.78,8.23-16.38,15.61-26.24,21.39c-10.92,6.39-22.56,9.77-35.28,8.7c-7.88-0.66-14.92-3.24-20.32-9.36
		c-3.35-3.79-5.07-8.15-4.88-13.23c0.11-2.93,1.07-5.54,3.08-7.7c2.65-2.87,6-3.47,9.62-2.57c3.24,0.8,5.7,3.84,6.06,7.2
		c0.41,3.81-0.96,6.88-4.13,9.03c-1.21,0.82-2.6,1.38-3.81,2c-0.56,2.97,1.25,4.59,2.92,6.16c4.09,3.86,9.16,5.25,14.63,5.46
		c11.95,0.46,22.54-3.65,32.46-9.84c9.38-5.85,17.72-13.02,25.21-21.1c12-12.93,23.83-26.02,35.64-39.13
		c19.87-22.05,40.88-42.9,64.42-61.06c6.05-4.67,12.44-8.91,18.74-13.27c1.57-1.08,3.2-2.6,5.76-1.01c-0.54,0.95-0.91,2-1.6,2.77
		c-31.89,35.04-55.8,75.3-76.63,117.53c-2.48,5.04-4.03,10.54-5.94,15.86c-0.31,0.87-0.29,1.87-0.42,2.79
		c2.13,0.95,3.11-0.47,4.05-1.43c3.73-3.8,7.52-7.56,10.97-11.6c17.42-20.37,34.72-40.83,52.1-61.23
		c19.14-22.46,39.78-43.45,61.85-63.04c1.41-1.25,2.7-3.07,5.54-1.89c-0.52,1.11-0.86,2.13-1.44,2.99
		c-16.78,24.82-32.8,50.14-47.25,76.38c-7.37,13.38-13.77,27.31-20.28,41.15c-2.03,4.32-3.01,9.13-4.42,13.74
		c-0.29,0.94-0.4,1.96-0.42,2.95c-0.15,5.71,3.12,8.58,8.58,6.86c3.58-1.12,7.11-2.92,10.18-5.09c9.43-6.67,17.12-15.24,25.08-23.53
		c5.86-6.11,11.97-12.04,18.48-17.44c6.19-5.13,13.42-8.64,21.55-9.82c1.48-0.21,2.98-0.42,4.47-0.4
		c7.18,0.08,11.95,3.95,13.46,10.96c1.36,6.3,0.02,12.26-2.78,17.9c-1.4,2.82-3.16,5.47-4.78,8.18c-0.83,1.4-1.71,2.78-2.59,4.19
		c2.17,2.37,4.58,2,6.59,0.9c2.88-1.57,5.56-3.57,8.17-5.58c1.8-1.38,3.33-3.11,5.29-4.39c-0.34,5.58-4.73,8-8.55,10.56
		c-4.04,2.71-8.5,4.92-14.19,0.61c-0.9,1.25-1.72,2.69-2.82,3.89c-4.33,4.7-9.24,8.6-15.27,10.97c-3.8,1.49-7.7,2.07-11.75,1.76
		c-6.96-0.54-12-4.68-13.21-11.52c-0.68-3.87-0.53-7.92-0.51-11.88c0.01-2.07,0.53-4.13,0.05-6.63c-1.07,1.23-2.06,2.55-3.23,3.69
		c-6.07,5.92-12.02,12-18.37,17.6c-3.2,2.82-7.06,4.97-10.84,7.03c-3.73,2.03-7.87,2.49-12.13,1.81c-7.3-1.18-11.5-5.66-12.04-13.07
		c-0.56-7.67,1.42-14.86,4.27-21.86c5.8-14.25,13.75-27.32,22.26-40.08c12.4-18.59,26.68-35.73,40.78-53.02
		c2.06-2.52,3.65-5.43,5.46-8.15l0.31-0.09L248.42,210.07z M284.37,300.84c-0.03-9.86-6.26-13.91-14.36-9.93
		c-2.65,1.3-5.18,3.06-7.38,5.03c-9.5,8.51-16.05,19.01-20.03,31.08c-0.82,2.49-1.26,5.2-1.36,7.83c-0.21,5.6,2.6,8.27,8.24,8.16
		c5.22-0.1,9.61-2.41,13.69-5.4c7.58-5.54,12.83-12.93,16.77-21.33C282.37,311.13,284.07,305.77,284.37,300.84z"/>
	<path class="st0" d="M644.15,319.03c-1.23,1-2.57,1.9-3.68,3.02c-4.68,4.73-9.14,9.68-13.97,14.23c-2.88,2.71-6.18,5.04-9.55,7.14
		c-1.91,1.19-4.27,1.97-6.52,2.26c-6.37,0.81-10.97-3.22-11.44-9.63c-0.34-4.63,0.69-9.02,3.11-12.9c3.07-4.93,6.43-9.69,9.87-14.36
		c2.86-3.88,6.09-7.48,9.03-11.3c1.5-1.96,3.02-4.07,1.42-6.85c-2.3-1.37-4.58-0.84-6.61,0.37c-3.27,1.96-6.62,3.89-9.52,6.33
		c-14.94,12.61-27.89,27.07-39.32,42.92c-1.07,1.48-2.11,2.97-3.25,4.57c-4.23,0-8.45,0-13.3,0c1.32-2.19,2.32-3.88,3.36-5.55
		c8.04-12.82,16.11-25.61,24.1-38.46c0.93-1.49,1.41-3.27,2.1-4.91l0.28-0.07L580.1,296c-6.78,7.42-12.46,15.83-19.72,22.77
		c-1.79-1.23-1.15-2.12-0.33-3.09c5.25-6.24,10.37-12.57,15.72-18.72c11.85-13.64,21.25-28.91,30.22-44.5
		c6.72-11.67,13.61-23.24,20.61-35.18c4.02,0,8.09,0,12.77,0c-1.02,1.87-1.81,3.47-2.72,4.99c-16.04,26.64-32.09,53.26-48.14,79.89
		c-3.18,5.27-6.39,10.52-9.51,15.82c-0.73,1.25-1.15,2.69-1.71,4.04c-0.11,0.11-0.22,0.21-0.33,0.32c0.07-0.15,0.13-0.3,0.2-0.45
		c1.54-1.48,3.09-2.95,4.61-4.44c7.96-7.79,15.77-15.75,23.95-23.3c2.87-2.65,6.53-4.57,10.08-6.34c3.38-1.69,7.21-2.14,10.42,0.39
		c3.47,2.73,4.44,6.76,3.32,10.83c-1.04,3.79-2.51,7.61-4.56,10.95c-3.38,5.52-7.37,10.67-11.1,15.98
		c-1.91,2.72-3.95,5.37-5.65,8.22c-1.05,1.76-1.58,3.84-2.15,5.31c1.82,3.23,4.08,3.64,6.42,2.69c2.43-0.99,5.01-2.08,6.93-3.79
		c5.7-5.09,11.23-10.39,16.61-15.82c5.98-6.03,11.62-12.37,17.59-18.41c7.22-7.31,15.38-13.3,25.41-16.18
		c3.16-0.91,6.53-1.55,9.8-1.55c8.66,0,13.02,6.51,9.96,14.6c-1.97,5.2-5.76,9.13-10.48,11.69c-7,3.78-14.29,7.07-21.61,10.19
		c-3.78,1.61-7.9,2.42-12.18,3.69c-0.35,2.24-0.92,4.5-1.01,6.79c-0.22,5.46,3.21,9.34,8.74,9.38c3.09,0.02,6.3-0.64,9.26-1.6
		c8.29-2.68,14.82-8.12,20.91-14.11c2.13-2.1,4.07-4.4,6.18-6.53c0.86-0.87,1.95-1.53,3.79-1.74c-0.26,0.95-0.24,2.16-0.83,2.83
		c-6.72,7.66-13.89,14.84-22.87,19.88c-5.15,2.89-10.7,4.6-16.66,4.62c-10.29,0.03-17.37-6.52-17.99-16.77
		c-0.21-3.46,0.01-6.96,0.03-10.43c0.15-0.1,0.29-0.21,0.27-0.19C644.34,318.73,644.25,318.88,644.15,319.03z M656.04,321.99
		c0.26,0.4,0.52,0.8,0.78,1.21c3.72-1.23,7.51-2.26,11.13-3.72c9.53-3.84,17.17-10.05,22.48-18.93c1.84-3.08,2.94-6.34,1.03-9.74
		c-3.99-1.99-5.94-2.03-10.36,0.57C668.97,298.51,661.66,309.59,656.04,321.99z"/>
	<path class="st0" d="M791,303.04c-1.24,1.02-2.58,1.93-3.69,3.08c-4.39,4.55-8.45,9.45-13.12,13.69c-3.27,2.97-7.2,5.3-11.09,7.48
		c-2.44,1.37-5.33,1.78-8.24,0.91c-4.47-1.33-6.64-4.24-6.2-8.91c0.21-2.25,0.85-4.46,1.48-7.61
		c-11.46,10.21-20.06,21.59-28.59,33.03c-4.49,0-8.88,0-13.83,0c1.11-1.88,1.89-3.31,2.78-4.66c8.02-12.06,16.07-24.1,24.09-36.16
		c1.38-2.08,2.77-4.16,3.94-6.36c1.09-2.05,1.97-4.25,0.89-6.84c-2.36-2.45-5.19-1.96-7.62-0.34c-3.16,2.11-6.25,4.47-8.89,7.19
		c-5.34,5.48-10.36,11.27-15.53,16.92c-1.11,1.21-2.27,2.38-3.93,4.12c-0.28-1.44-0.49-2.24-0.57-3.05
		c-0.02-0.27,0.26-0.61,0.48-0.85c7.73-8.48,14.71-17.69,23.87-24.77c1.8-1.39,3.98-2.46,6.15-3.19c6.25-2.1,11.83,1.59,12.6,8.16
		c0.5,4.26-0.43,8.32-2.19,12.14c-1.39,3.01-3.14,5.86-4.78,8.75c-1.04,1.83-2.18,3.61-2.9,5.67c5.41-5.02,10.82-10.04,17.27-16.03
		c1.04-2.09,2.59-5.6,4.47-8.92c2.51-4.41,5.7-8.24,10.77-9.92c3.41-1.14,4.76-0.64,7.14,2.46c0.19,3.44-1.58,6.12-4.1,8.09
		c-3.53,2.75-7.26,5.27-11.1,7.55c-5.15,3.06-7.76,7.65-8.69,13.32c-0.89,5.43,2.09,8.27,7.56,7.25c5.64-1.05,10.08-4.35,13.9-8.37
		c7.68-8.08,15.18-16.34,22.75-24.53c1.58-1.71,3.17-3.4,4.75-5.09c4.38,0,8.63,0,13.59,0c-1.14,1.89-1.94,3.29-2.8,4.65
		c-7.8,12.39-15.64,24.76-23.39,37.18c-1.22,1.96-2.14,4.12-3.13,6.22c-0.9,1.92-0.93,3.85,0.25,5.8c2.69,2.13,5.67,1.82,8.36,0.26
		c3.43-1.99,6.89-4.11,9.82-6.75c5.68-5.11,11.08-10.55,16.46-16c4.32-4.38,8.41-9,12.66-13.46c6.5-6.81,13.79-12.59,22.66-16.01
		c3.39-1.3,7-2.12,10.59-2.74c1.89-0.33,4.01-0.02,5.9,0.47c5.98,1.55,8.65,6.23,7.1,12.21c-1.47,5.64-5.26,9.61-9.87,12.77
		c-9.01,6.17-19.02,10.21-29.49,13.17c-1.59,0.45-3.2,0.81-5.38,1.35c-0.18,2.96-0.64,5.91-0.46,8.82c0.28,4.43,2.86,7.23,7.3,7.38
		c3.42,0.11,6.98-0.46,10.28-1.42c6.68-1.95,12.22-6.03,17.22-10.74c3.76-3.53,7.25-7.33,10.83-11.05c1.13-1.17,2.15-2.46,3.33-3.82
		c0.87,0.78,1.33,1.19,2.16,1.93c-1.82,2.08-3.52,4.06-5.26,5.99c-5.94,6.57-12.27,12.7-19.91,17.29c-5.82,3.5-12.1,5.5-18.96,5.32
		c-9.55-0.25-15.97-6.14-16.83-15.68c-0.29-3.28-0.05-6.61-0.05-10.93c-1.55,1.34-2.61,2.16-3.58,3.09
		c-5.27,5.08-10.39,10.33-15.84,15.21c-2.7,2.41-5.87,4.39-9.05,6.15c-3.26,1.8-6.85,2.48-10.62,1.5c-5.06-1.31-7.9-4.4-7.78-9.58
		c0.08-3.43,0.43-7.15,1.83-10.2c2.9-6.32,6.59-12.27,9.93-18.39c0.78-1.42,1.47-2.88,2.2-4.33c0.36-0.32,0.72-0.63,1.09-0.95
		c0.04-0.09,0.09-0.19,0.13-0.28c0,0.14,0,0.29,0,0.43C791.75,302.45,791.38,302.74,791,303.04z M835.72,323.18
		c13.94-3.34,24.8-9.56,32.72-20.34c1.44-1.96,2.32-4.4,3.11-6.74c0.71-2.11,0.56-4.3-1.47-6.09c-3.71-1.76-7.16-0.15-10.11,1.93
		c-3.77,2.66-7.37,5.7-10.56,9.04C843.53,307.13,839.06,314.25,835.72,323.18z"/>
	<path class="st0" d="M496.56,333.73c-2.14-0.42-2.04-1.89-1.98-3.17c1.03-19.44,8.46-35.43,25.29-46.18c4.7-3,9.92-4.59,15.61-4.45
		c9.23,0.23,15.66,6.09,16.55,15.33c0.49,5.08-0.32,10.06-2.43,14.63c-10.44,22.58-28.09,35.3-52.9,37.67
		c-3.75,0.36-7.67-0.19-11.41-0.87c-14.68-2.69-24.7-13.86-26.09-28.85c-1.1-11.83,0.67-23.23,5.21-34.21
		c0.45-1.08,0.91-2.14,1.34-3.23c0.12-0.3,0.12-0.64,0.26-1.37c-1.38,0.15-2.66,0.19-3.9,0.44c-7.18,1.42-14.33,2.98-21.53,4.3
		c-1.96,0.36-4.14,1.38-6.3-0.44c0.9-2,2.76-1.77,4.23-2.08c8.46-1.79,16.94-3.5,25.41-5.28c1.46-0.3,2.88-0.77,4.43-1.19
		c1.69-2.85,3.3-5.76,5.09-8.55c10.3-16.05,23.7-29.13,38.91-40.44c13.67-10.17,28.15-18.98,44.17-25.01
		c8.79-3.31,17.87-5.22,27.35-4.8c12.75,0.57,17.8,8.85,12.37,20.44c-2.59,5.53-6.67,9.91-11.29,13.8
		c-8.85,7.46-18.95,12.93-29.24,18.04c-21.4,10.62-44.04,17.89-66.88,24.6c-1.59,0.47-3.16,0.96-4.82,1.46
		c-7.21,13.84-11.84,28.3-12.39,43.88c-0.11,3.13,0.21,6.34,0.78,9.43c1.71,9.41,8.47,15.49,18.16,16.5
		c8.46,0.88,16.59-0.48,24.36-3.95c14.04-6.27,24.8-15.99,31.35-30.05c2.06-4.43,3.15-9.13,2.74-14.06
		c-0.73-8.82-5.95-13.11-14.74-12.26c-4.31,0.41-8.1,2.13-11.35,4.78c-13.2,10.76-22.38,24.03-25,41.24
		c-0.15,0.98-0.35,1.96-0.6,2.92C497.24,333.04,496.93,333.27,496.56,333.73z M486.11,270.11c1.81-0.4,2.6-0.52,3.36-0.76
		c8.1-2.48,16.24-4.86,24.29-7.5c16.77-5.51,33.09-12.14,48.71-20.4c8.85-4.68,17.19-10.13,24.38-17.2c3.35-3.3,6.2-6.96,7.74-11.47
		c2.33-6.8-0.59-12.01-7.58-13.45c-1.45-0.3-2.97-0.31-4.47-0.36c-11.13-0.37-21.31,3.12-31.06,8
		c-21.5,10.78-39.11,26.26-53.9,45.07C493.36,257.41,489.64,263.1,486.11,270.11z"/>
	<path class="st0" d="M192.53,480.5c3.03,3.04,6.95,4.18,11.18,4.38c8.79,0.4,16.75-2.16,23.95-7.14
		c6.38-4.41,11.71-9.98,15.9-16.41c7.82-11.98,15.28-24.19,22.73-36.4c8.79-14.4,18.5-28.07,30.64-39.87
		c3.06-2.98,6.37-5.71,10.29-9.19c-3.98-1.27-7.18-2.68-10.52-3.29c-35.9-6.52-66.84,2.7-92.03,29.53
		c-4.13,4.4-7.51,9.47-9.07,15.34c-0.96,3.62-1.46,7.56-1.18,11.28c0.53,6.86,5.36,11.07,12.22,11.51
		c5.62,0.36,10.99-0.79,15.94-3.35c18.66-9.62,31.74-24.43,39.82-43.68c1.32-3.15,1.83-6.65,3.53-10.13
		c0.28,0.9,0.96,1.89,0.76,2.68c-1.3,5.31-2.33,10.75-4.28,15.83c-5.51,14.28-13.97,26.46-27,34.96c-7.42,4.84-15.61,7.37-24.52,7.3
		c-14.16-0.11-22.06-10.2-18.72-24.02c2.22-9.16,7.21-16.78,13.76-23.37c15.19-15.26,33.67-24.17,54.83-27.45
		c16.71-2.59,33.18-1.68,49.08,4.85c4.91-2.14,9.1-6.21,15.29-4.86c-3.86,1.85-7.73,3.71-12.51,6c2.09,1.61,3.42,2.7,4.82,3.7
		c4.27,3.04,7.96,6.66,10.29,11.36c5.38,10.83,4.82,21.47-2.85,30.9c-8.7,10.68-20.04,15.74-34.01,12.98
		c-2.64-0.52-5.06-2.18-7.72-3.38c0.38-1.48,0.59-2.33,0.81-3.17c0.63,0.12,1.07,0.07,1.24,0.26c4.26,4.7,9.59,4.9,15.14,3.35
		c5.83-1.63,10.42-5.23,13.82-10.15c6.03-8.73,8.52-18.39,6.33-28.9c-1.26-6.06-4.32-11.1-10.63-14.3
		c-2.23,2.36-4.62,4.63-6.71,7.13c-8.05,9.63-14.02,20.59-20.12,31.49c-5.85,10.44-11.69,20.93-18.32,30.88
		c-9.62,14.45-21.86,26.37-37.42,34.51c-9.24,4.84-19.01,6.94-29.44,5.28c-4.19-0.67-8.07-2.03-11.26-4.93
		c-3.33-3.02-4.6-7.32-3.29-10.8c1.33-3.55,4.91-5.34,8.47-4.25c3.12,0.96,5.54,4.71,4.52,7.88
		C195.68,476.72,194.04,478.29,192.53,480.5z"/>
	<path class="st0" d="M421.35,453.88c-1.56,1.42-3.21,2.76-4.68,4.27c-6.02,6.19-11.87,12.54-18.02,18.6c-2.7,2.66-5.79,5-8.99,7.03
		c-2.04,1.3-4.53,2.18-6.93,2.54c-5.02,0.75-9.42-2.83-9.39-7.9c0.02-3.22,0.78-6.6,1.97-9.61c1.46-3.67,3.76-7.01,5.59-10.54
		c0.58-1.11,0.84-2.39,1.25-3.6c0.39-0.32,0.77-0.63,1.16-0.95c0.1-0.09,0.19-0.18,0.29-0.27c-0.05,0.13-0.1,0.27-0.15,0.4
		c-0.39,0.31-0.78,0.62-1.17,0.93c-5.01,5.55-9.91,11.21-15.08,16.61c-3.45,3.59-7.15,6.99-11.02,10.12c-2.29,1.85-5,3.35-7.76,4.39
		c-5.07,1.9-9.45-0.65-10.42-6c-0.43-2.38-0.07-4.91-0.07-8.07c-1.44,1.41-2.54,2.71-3.85,3.74c-4.02,3.19-7.79,6.88-12.25,9.26
		c-7.74,4.13-14.21,0.6-15.79-8.1c-1.34-7.38-0.08-14.23,4.84-20.18c6.68-8.07,15.18-13.34,25.1-16.42
		c0.94-0.29,1.95-0.41,2.94-0.54c7.73-0.95,10.22,0.86,11.88,9.42c1.25-1.94,2.13-3.36,3.07-4.74c0.94-1.36,1.95-2.66,2.94-4.02
		c3.29,0,6.42,0,10.06,0c-0.61,1.23-1,2.23-1.57,3.11c-5.16,7.96-10.41,15.86-15.51,23.85c-1.96,3.08-3.72,6.3-5.37,9.56
		c-1.06,2.09-1.81,4.37,0.19,6.46c2.48,1.19,4.65,0.16,6.59-1.1c2.77-1.82,5.6-3.68,7.97-5.97c13.68-13.21,25.94-27.66,37.24-42.94
		c0.88-1.19,1.61-2.49,2.67-4.14c-2.37-0.33-4.34-0.6-7.05-0.98c2.93-3.29,6.48-1.07,9.58-2.72c3.52-5.79,7.3-12.03,11.22-18.49
		c3.16,0,6.25,0,10.09,0c-3.84,6.27-7.49,12.23-11.63,18.99c7.01,0.06,13.32,0.12,19.71,0.17c-0.11,2.61-1.54,2.56-2.85,2.56
		c-4.66,0-9.32-0.04-13.98-0.06c-1.64-0.01-3.29,0-4.99,0c-1.69,2.57-3.28,4.89-4.76,7.27c-6.42,10.31-12.85,20.61-19.18,30.97
		c-1.81,2.97-3.42,6.08-4.9,9.24c-1.08,2.3-1.67,4.76,0.53,7.03c3.12,1.46,5.92,0.05,8.3-1.66c3.77-2.71,7.54-5.55,10.74-8.88
		c9.23-9.59,18.17-19.46,27.23-29.22c0.9-0.97,1.77-1.97,2.82-3.13c3.2,0,6.49,0,10.24,0c-0.59,1.2-0.98,2.2-1.53,3.09
		c-5.84,9.49-11.78,18.92-17.52,28.47c-1.85,3.07-4.12,6.13-3.46,10c1.9,2.78,4.4,2.54,6.73,1.36c2.65-1.34,5.28-2.9,7.53-4.81
		c3.29-2.79,6.23-5.98,9.32-9.01c1.76-1.72,3.5-3.46,5.95-4.76c-0.27,0.81-0.3,1.84-0.83,2.4c-4.48,4.69-8.79,9.59-13.68,13.81
		c-2.8,2.41-6.42,4.28-9.98,5.31c-6.32,1.83-11.29-2.57-10.95-9.14c0.29-5.44,2.3-10.32,5.11-14.95c1.61-2.65,2.94-5.45,4.4-8.19
		c0.36-0.32,0.72-0.64,1.07-0.96c0.14-0.13,0.28-0.26,0.3-0.29c-0.02,0.04-0.1,0.23-0.18,0.42
		C422.09,453.26,421.72,453.57,421.35,453.88z M347.06,444.03c-2.52-2.89-5.54-2.82-8.33-1.47c-2.81,1.35-5.52,3.12-7.85,5.19
		c-5.65,4.99-10.36,10.86-13.77,17.59c-1.71,3.36-2.91,7.05-3.84,10.72c-0.49,1.94,0.07,4.14,0.12,5.5
		c2.29,2.38,4.28,2.46,6.21,1.69c1.99-0.8,4.01-1.71,5.71-2.99c7.1-5.37,13.05-11.91,17.85-19.36
		C346.34,455.97,348.45,450.51,347.06,444.03z"/>
	<path class="st0" d="M596.04,466.7c0.72-0.29,1.6-0.4,2.13-0.89c3.4-3.18,6.84-6.34,10.03-9.73c1.45-1.54,2.32-3.61,3.52-5.39
		c1.94-2.88,3.7-5.95,6.01-8.51c1.36-1.5,3.54-2.45,5.52-3.13c1.79-0.62,3.66-0.17,4.76,2.2c0.15,3.1-1.8,5.34-4.29,7.11
		c-2.43,1.73-5.06,3.2-7.62,4.75c-3.88,2.35-6.55,5.63-7.57,10.09c-1.09,4.75,1.59,7.9,6.24,6.61c3.24-0.9,6.59-2.65,9.01-4.95
		c6.15-5.83,11.82-12.16,17.66-18.32c1.94-2.05,3.8-4.18,5.91-6.52c1.54,0,3.19-0.03,4.83,0.01c1.59,0.04,3.17,0.16,5.45,0.29
		c-1.33,2.28-2.24,3.99-3.28,5.63c-5.53,8.7-11.14,17.36-16.61,26.1c-1.83,2.92-3.92,5.84-3.43,9.39c1.77,3.03,4.31,3.01,6.67,1.9
		c2.68-1.26,5.33-2.82,7.56-4.75c4.14-3.59,8.03-7.49,11.9-11.38c4.57-4.61,8.93-9.42,13.52-14.01c5.59-5.59,11.84-10.28,19.55-12.5
		c2.52-0.73,5.23-1.18,7.84-1.11c7.5,0.18,10.55,5.58,7.22,12.38c-1.74,3.55-4.5,6.21-7.75,8.29c-6.91,4.43-14.39,7.6-22.33,9.69
		c-1.26,0.33-2.52,0.67-3.77,1c-1.36,3.96-2.29,7.85,0.54,11.08c2.8,3.2,6.78,2.2,10.33,1.4c4.95-1.12,9.37-3.54,13.14-6.89
		c3.72-3.31,7.16-6.94,10.72-10.43c1.13-1.11,2.27-2.22,4.28-4.2c-0.21,1.96-0.03,2.84-0.39,3.27c-5.17,6.11-10.66,11.9-17.4,16.36
		c-4.38,2.9-9.14,4.83-14.39,5.22c-9.31,0.69-15.29-4.68-15.71-13.99c-0.1-2.3-0.02-4.62-0.02-7.63c-2.41,2.44-4.43,4.58-6.54,6.61
		c-3.35,3.23-6.53,6.71-10.23,9.5c-2.85,2.15-6.22,3.98-9.64,4.94c-6.55,1.84-11.6-2.65-11.13-9.47c0.33-4.74,2.15-9.03,4.52-13.1
		c2.08-3.58,4.18-7.16,6.27-10.73l0.21-0.19l-0.16,0.26c-2.1,2.12-4.17,4.27-6.31,6.35c-3.22,3.12-6.34,6.39-9.81,9.21
		c-2.01,1.63-4.51,2.9-6.99,3.65c-6.01,1.83-10.12-1.51-9.99-7.77c0.02-0.82,0.1-1.64,0.15-2.55c-4.58,2.28-8.43,6.53-21.85,24.07
		c-1.44,0-3.25,0-5.05,0c-1.78,0-3.55,0-6.1,0c1.35-2.09,2.22-3.47,3.12-4.83c6.73-10.11,13.52-20.19,20.18-30.35
		c1.6-2.44,3.47-5,1.95-8.27c-2.87-1.82-5.3-0.62-7.33,1.16c-3.26,2.84-6.36,5.86-9.36,8.97c-2.66,2.75-5.06,5.74-7.65,8.57
		c-0.93,1.01-2.06,1.84-3.83,2.14c0.37-0.8,0.57-1.74,1.13-2.37c5-5.57,9.96-11.19,15.17-16.56c1.81-1.86,4.13-3.45,6.51-4.49
		c5.34-2.35,10.12,0.56,10.9,6.35c0.59,4.34-0.99,8.19-2.97,11.9c-1.55,2.92-3.2,5.79-4.8,8.69c-0.12,0.15-0.24,0.31-0.24,0.31
		C595.93,467.1,595.98,466.9,596.04,466.7z M675.26,468.13c2.11-0.34,3.25-0.39,4.3-0.71c7.29-2.19,13.76-5.83,18.82-11.56
		c1.94-2.19,3.43-4.84,4.81-7.45c1.03-1.95,1.28-4.14-0.58-5.92c-4.19-0.91-6.15-0.65-10.13,2.41
		C684.85,450.78,679.46,458.41,675.26,468.13z"/>
	<path class="st0" d="M334.43,319.94c2.5-2.65,4.94-5.36,7.5-7.94c6.21-6.25,12.37-12.56,18.78-18.6c3.26-3.07,6.98-5.66,11.54-6.64
		c6.32-1.36,10.78,1.97,11.32,8.45c0.34,4.13-0.65,8.02-2.73,11.48c-3.17,5.26-6.63,10.35-10.05,15.45
		c-2.87,4.28-5.91,8.44-8.78,12.73c-1.35,2.02-2.02,4.23-0.26,6.56c2.57,2.13,5.36,1.47,7.81-0.1c3.48-2.23,6.99-4.57,9.97-7.41
		c5.05-4.81,9.71-10.04,14.51-15.12c1.13-1.19,2.17-2.48,3.12-3.58c1.91,0.93,2.15,1.9,1.16,3.02c-7.26,8.24-14.4,16.64-23.34,23.15
		c-2.49,1.81-5.53,3.16-8.52,3.92c-7.17,1.82-12.99-2.89-13.14-10.28c-0.12-6.06,2.01-11.49,5.39-16.33
		c3.71-5.31,7.81-10.35,11.78-15.47c1.63-2.1,3.41-4.09,5.05-6.19c1.36-1.75,2.41-3.63,1.41-6.17c-2.71-2.59-5.68-1.32-8,0.46
		c-5.78,4.45-11.58,8.96-16.77,14.06c-6.16,6.05-11.84,12.62-17.45,19.21c-5.49,6.46-10.62,13.22-16.15,20.13
		c-4.26,0-8.82,0-13.93,0c1.16-1.83,1.99-3.23,2.91-4.57c8.56-12.49,17.14-24.96,25.68-37.47c1.5-2.19,2.91-4.46,4.16-6.8
		c1.06-1.99,1.42-4.11-0.45-5.98c-2.7-1.61-5.29-0.76-7.49,0.79c-3.25,2.28-6.5,4.69-9.3,7.49c-5.17,5.17-10.01,10.68-15.01,16.02
		c-1.19,1.27-2.51,2.41-3.77,3.61c-0.28-0.19-0.56-0.38-0.84-0.57c0.21-0.82,0.18-1.83,0.66-2.43c7.15-8.78,14.43-17.48,23.42-24.44
		c2.53-1.96,5.81-3.36,8.96-4.02c5.71-1.2,10.09,2.47,10.8,8.26c0.5,4.11-0.34,8-2.17,11.61c-1.65,3.26-3.71,6.3-5.52,9.47
		c-0.8,1.4-1.43,2.91-2.14,4.36c-0.19,0.07-0.37,0.15-0.29,0.11C334.21,320.26,334.32,320.1,334.43,319.94z"/>
	<path class="st0" d="M485.29,464.81c0.48-1.31,0.65-2.89,1.49-3.9c4.36-5.24,8.88-10.36,13.38-15.48
		c2.84-3.24,6.09-6.13,7.84-10.23c0.43-1.01,1.35-1.93,2.27-2.59c1.73-1.24,3.4-1.23,4.61,0.91c0.09,4.4-4.36,5.01-6.51,7.61
		c-0.67,4.01-0.12,7.92,0.84,11.82c1.59,6.43,3.67,12.8,2.95,20.03c1.45-1.24,3.03-2.37,4.34-3.76c4.44-4.73,8.71-9.62,13.18-14.32
		c6.15-6.46,13.1-11.8,21.78-14.46c3.37-1.03,6.79-1.64,10.31-0.74c4.6,1.18,7,4.93,5.58,9.46c-0.72,2.31-1.89,4.8-3.61,6.4
		c-3,2.8-6.38,5.34-9.97,7.32c-6.7,3.68-13.8,6.5-21.04,7.82c-0.4,0.42-0.57,0.52-0.62,0.66c-1.26,3.57-2.01,7.37,0.61,10.43
		c2.72,3.18,6.71,2.47,10.3,1.65c6.51-1.48,11.86-5.12,16.63-9.66c2.17-2.06,4.15-4.32,6.29-6.41c0.72-0.7,1.69-1.15,3.19-1.16
		c-0.31,0.66-0.49,1.42-0.94,1.97c-4.66,5.71-9.82,10.95-16.4,14.39c-3.34,1.74-7.05,3.07-10.75,3.76
		c-10.2,1.91-17.28-4.02-17.64-14.37c-0.07-1.92-0.01-3.83-0.01-5.91c-5.11,4.32-10.03,8.49-14.97,12.63
		c-4.67,3.91-9.84,6.94-15.98,7.65c-2.57,0.29-5.31,0.08-7.85-0.47c-3.03-0.65-4.73-3-5.27-6.02c-0.53-2.97,0.72-5.14,3.17-6.59
		c4.65,0.92,4.65,0.92,5.32,5.35c-1.24,0.81-2.58,1.7-4.18,2.74c1.18,2.74,3.44,2.74,5.73,2.28c4.14-0.83,7.23-3.3,9.53-6.74
		c2.99-4.48,5.22-9.36,5.89-14.7c0.77-6.08,1.04-12.22,1.62-19.48c-1.85,1.63-2.89,2.38-3.71,3.31c-4.97,5.6-9.86,11.26-14.85,16.85
		c-0.7,0.79-1.77,1.24-2.67,1.85L485.29,464.81z M560.53,442.25c-4.74-1.37-8.27,0.87-11.52,3.47
		c-6.32,5.04-11.08,11.36-14.56,18.65c-0.46,0.96-0.69,2.03-1.21,3.57c1.67-0.23,2.81-0.23,3.84-0.57
		c5.54-1.83,10.94-4.1,15.22-8.14c2.98-2.81,5.7-5.98,8.06-9.32C561.84,447.82,562.87,445.13,560.53,442.25z"/>
	<path class="st0" d="M485.17,464.7c-1.63,2.25-2.98,4.79-4.95,6.68c-3.48,3.32-7.28,6.33-11.07,9.31
		c-4.29,3.37-9.25,5.38-14.67,5.72c-2.56,0.16-5.42-0.17-7.74-1.18c-5.45-2.39-5.76-8.62-0.87-12.14c4.81,0.91,4.99,1.13,4.6,5.77
		c-1.23,0.79-2.58,1.66-4.18,2.69c2.13,2.84,4.77,2.52,7.32,1.84c3.75-1,6.55-3.6,8.18-6.9c2.26-4.58,4.22-9.39,5.64-14.3
		c1.71-5.91,1.12-12.08,0.89-18.37c-6.74,5.79-11.44,13.37-19,18.36c0.42-0.9,0.67-1.96,1.3-2.68c4.84-5.49,9.82-10.86,14.61-16.4
		c1.82-2.1,3.4-4.45,4.81-6.85c2.03-3.46,2.63-4.01,6.41-4.35c2.55,3.8,2.53,3.84-5.16,9.32c-0.78,4.4-0.18,8.83,0.99,13.18
		c1.65,6.12,3.09,12.25,1.76,19.41c4.17-3.34,7.71-6.16,11.24-8.98L485.17,464.7z"/>
	<path class="st0" d="M683.75,274.9c0.92-1.05,1.87-2.06,2.74-3.15c3.2-4,6.76-7.78,9.43-12.12c2.03-3.31,2.95-7.31,4.28-11.03
		c0.5-1.4,0.6-2.95,1.19-4.3c1.43-3.25,4.62-4.67,7.75-3.67c3.26,1.04,5.01,3.88,3.91,7.47c-0.75,2.47-2.12,4.88-3.71,6.93
		c-6.28,8.05-13.97,14.58-22.54,20.09c-0.62,0.4-1.42,0.53-2.13,0.79C684.36,275.58,684.05,275.24,683.75,274.9z"/>
	<path class="st0" d="M351.91,405.11c1.5,0,2.78,0,4.11,0c3.49,7.58,6.91,15.01,10.25,22.28c-3.55-0.64-3.86-0.94-13.18-13.34
		c-1.49,1.17-2.94,2.45-4.52,3.53c-4.23,2.9-8.47,5.8-12.82,8.52c-1.43,0.89-3.21,1.23-5.03,1.4c1.61-3.41,5.07-4.52,7.45-6.85
		c2.36-2.32,4.96-4.42,7.14-6.89C347.61,411.16,349.54,408.25,351.91,405.11z"/>
	<path class="st0" d="M827.89,257.8c-3.84,0.04-6.9-3.08-6.86-7.01c0.04-4,3.37-7.49,7.15-7.5c3.74-0.02,6.82,3.16,6.84,7.07
		C835.06,254.37,831.81,257.76,827.89,257.8z"/>
	<path class="st0" d="M457.26,411.34c-0.35,3.12-3.25,5.51-6.24,5.17c-2.93-0.33-4.97-2.98-4.64-6.03c0.34-3.17,3.23-5.59,6.2-5.18
		C455.52,405.7,457.59,408.38,457.26,411.34z"/>
	<path class="st0" d="M669.35,405.55c3.01-0.02,5.31,2.2,5.44,5.23c0.13,3.22-2.65,6.05-5.9,5.98c-2.97-0.07-5.1-2.38-5.09-5.53
		C663.8,407.97,666.15,405.56,669.35,405.55z"/>
	<path class="st0" d="M495.6,79.25c3.81,1.18,6.23,3.48,8,6.9C498.79,86.03,496.6,84.16,495.6,79.25z"/>
	<path class="st0" d="M498.64,60.73c3.48,0.85,3.48,0.85,2.66,3.9C498.89,64.33,497.9,63.23,498.64,60.73z"/>
	<path class="st0" d="M531.21,93.16c0.16-0.46,0.23-1.01,0.52-1.37c0.28-0.34,0.8-0.49,1.19-0.71c1.8,1.64,1.8,1.64,1.4,4.15
		c-1.19-0.83-2.22-1.54-3.25-2.25C531.08,92.98,531.21,93.16,531.21,93.16z"/>
	<path class="st0" d="M473.54,32.13c-1.74-0.95-2.57-1.9-1.39-3.91C474.42,28.88,474.82,30,473.54,32.13z"/>
	<path class="st0" d="M551.4,104c-0.93-0.28-1.85-0.57-3.11-0.95c0.65-0.85,1.01-1.33,1.57-2.06c0.81,0.77,1.44,1.37,2.06,1.97
		C551.75,103.31,551.57,103.66,551.4,104z"/>
	<path class="st0" d="M475.61,24.14c-2.64,0.67-2.64,0.67-3.39-2.41C473.62,22.72,474.43,23.3,475.61,24.14z"/>
	<path class="st0" d="M479.21,42.5c0.17-1.41,0.27-2.24,0.46-3.75c1.11,1.01,1.74,1.58,2.85,2.59
		C481.25,41.78,480.51,42.04,479.21,42.5z"/>
	<path class="st0" d="M490.43,53.31c2.6,0.54,2.6,0.54,3.29,2.45C491.87,55.32,491.87,55.32,490.43,53.31z"/>
	<path class="st0" d="M564.12,110.87c-0.58,0.66-0.96,1.09-2.06,2.35c-0.39-2.05-0.55-2.87-0.91-4.74
		C562.56,109.62,563.12,110.07,564.12,110.87z"/>
	<path class="st0" d="M507.9,66.74c0.79,1.51,1.12,2.14,1.52,2.9C507.15,69.74,507.15,69.74,507.9,66.74z"/>
	<path class="st0" d="M527.67,85.5c0.75,0.13,1.49,0.27,2.24,0.4c-0.06,0.34-0.12,0.68-0.18,1.02c-0.75-0.13-1.49-0.26-2.24-0.4
		C527.55,86.18,527.61,85.84,527.67,85.5z"/>
	<path class="st0" d="M571.39,114.19c-0.67-0.1-1.33-0.2-2-0.3c0.01-0.27,0.02-0.55,0.03-0.82c0.7,0,1.4,0,2.11,0
		C571.48,113.45,571.43,113.82,571.39,114.19z"/>
	<path class="st0" d="M470.78,14.72c-0.43,0.02-0.85,0.05-1.28,0.07c0.28-0.29,0.56-0.59,0.84-0.88
		C470.48,14.18,470.63,14.45,470.78,14.72z"/>
	<path class="st0" d="M561.6,138.86c-3.17,2.36-3.17,2.36-5.43-0.36C557.96,136.33,559.6,136.91,561.6,138.86z"/>
	<path class="st0" d="M525.88,126.99c-3.13,0.53-3.98-0.96-4.61-3.27C524.03,123.02,525.17,124.24,525.88,126.99z"/>
	<path class="st0" d="M477.4,84.98c-1-0.95-1.99-1.89-3.7-3.52c3.26-0.22,4.47,0.47,4.65,2.51
		C478.03,84.31,477.72,84.65,477.4,84.98z"/>
	<path class="st0" d="M452.39,49.21c1.31,0.57,1.86,1.43,0.59,3.78c-0.78-1.45-1.25-2.31-1.72-3.18
		C451.64,49.61,452.01,49.41,452.39,49.21z"/>
	<path class="st0" d="M458.49,58.23c1.33,1.57,1.98,2.34,3.17,3.75C458.82,62.02,458.3,61.13,458.49,58.23z"/>
	<path class="st0" d="M490.57,97.46c0.61,0.56,1.23,1.13,1.84,1.69c-0.21,0.3-0.43,0.6-0.64,0.91c-0.72-0.45-1.44-0.91-2.16-1.36
		C489.93,98.29,490.25,97.88,490.57,97.46z"/>
	<path class="st0" d="M514.29,115.97c0.24,0.62,0.48,1.23,0.72,1.85c-0.28,0.11-0.55,0.22-0.83,0.33c-0.24-0.61-0.49-1.23-0.74-1.84
		C513.73,116.19,514.01,116.08,514.29,115.97z"/>
	<path class="st0" d="M463.53,70.71c-0.24,0.05-0.36,0.1-0.47,0.09c-0.04,0-0.06-0.16-0.1-0.25
		C463.12,70.6,463.27,70.64,463.53,70.71z"/>
	<path class="st0" d="M391.49,125.08c-2.18-0.38-4.37-0.75-6.64-1.14c1.39-3.7,1.39-3.7,6.68-2.27c-0.07,1.15-0.14,2.37-0.21,3.58
		L391.49,125.08z"/>
	<path class="st0" d="M450.27,108.14c-1.12,1.75-2.24,3.51-3.46,5.42c-1.67-2.47-1.67-2.47,0.83-5.57c0.79,0.07,1.75,0.16,2.72,0.25
		L450.27,108.14z"/>
	<path class="st0" d="M306.97,95.7c3.23,2.35,3.23,2.35,2.97,5.57C307.5,99.98,306.61,98.11,306.97,95.7z"/>
	<path class="st0" d="M379.68,122.07c-2.83,2.15-2.83,2.15-4.79-0.51C376.5,119.54,377.9,120.32,379.68,122.07z"/>
	<path class="st0" d="M340.96,118.37c-2.84,0.7-3.19-0.6-3.46-2.36C339.62,115.37,340.46,116.19,340.96,118.37z"/>
	<path class="st0" d="M344.11,119.1c1.3-1.8,2.28-1.6,3.45,0.12C346.25,121.09,345.27,121,344.11,119.1z"/>
	<path class="st0" d="M387.47,154.07c3.13-3.22,5.29-3.62,9.15-1.68C393.88,156.46,390.7,157.04,387.47,154.07z"/>
	<path class="st0" d="M307.67,135.32c-0.75-1.05-1.5-2.1-2.42-3.39C309,131.53,309,131.53,307.67,135.32z"/>
	<path class="st0" d="M352.51,149.75c-2.45,1.82-3.64,1.58-3.07-1.85C350.72,148.67,351.61,149.21,352.51,149.75z"/>
	<path class="st0" d="M354.36,150.85c0.84-0.41,1.69-0.81,2.9-1.39c0.11,1.1,0.17,1.69,0.26,2.52c-1.12,0-2.01,0-2.9,0
		C354.53,151.6,354.45,151.22,354.36,150.85z"/>
</g>
</svg>
